<svg id="svg" version="1.1" xmlns="http://www.w3.org/2000/svg" xmlns:xlink="http://www.w3.org/1999/xlink" width="400" height="400" viewBox="0, 0, 400,400"><g id="svgg"><path id="path0" d="M220.282 242.692 C 220.139 243.403,219.662 244.026,219.043 244.308 L 218.035 244.767 218.118 254.950 L 218.200 265.133 219.667 266.601 L 221.135 268.068 229.684 268.293 C 240.845 268.586,240.000 269.104,240.000 261.973 C 240.000 255.518,240.200 255.824,235.963 255.809 C 232.484 255.797,232.000 256.219,232.000 259.262 C 232.000 261.832,231.382 262.556,229.952 261.663 C 229.545 261.408,228.668 261.200,228.005 261.200 C 226.826 261.200,226.799 261.156,226.740 259.100 C 226.707 257.945,226.605 257.495,226.513 258.100 C 226.088 260.907,224.800 259.397,224.806 256.100 C 224.812 253.026,225.218 251.458,225.774 252.357 C 226.252 253.132,226.800 252.835,226.800 251.800 C 226.800 250.753,226.215 250.441,225.860 251.300 C 225.642 251.830,225.962 249.351,226.222 248.500 C 226.332 248.140,227.594 248.000,230.732 248.000 C 233.128 248.000,235.923 247.886,236.944 247.746 L 238.800 247.491 238.800 244.968 L 238.800 242.445 230.500 242.296 C 225.935 242.214,221.820 242.009,221.356 241.841 C 220.646 241.584,220.476 241.718,220.282 242.692 M135.877 242.686 C 135.774 242.859,135.805 248.572,135.945 255.383 L 136.200 267.765 137.200 268.043 C 139.866 268.783,157.156 268.430,157.586 267.626 C 158.153 266.566,158.109 258.374,157.520 255.524 L 157.040 253.200 154.720 253.200 C 152.437 253.200,152.400 253.218,152.400 254.338 C 152.400 255.657,151.318 256.800,150.069 256.800 C 149.282 256.800,149.200 257.009,149.200 259.000 C 149.200 261.088,149.148 261.200,148.186 261.200 C 147.628 261.200,146.727 261.491,146.184 261.847 C 144.180 263.161,144.025 262.498,143.907 252.057 L 143.800 242.600 139.932 242.486 C 137.805 242.423,135.980 242.513,135.877 242.686 M164.612 242.885 C 163.966 244.793,164.237 265.622,164.911 265.835 C 165.302 265.959,165.907 266.497,166.257 267.030 C 166.643 267.620,167.276 268.000,167.872 268.000 C 169.395 268.000,170.400 268.721,170.400 269.814 L 170.400 270.800 175.600 270.800 L 180.800 270.800 180.800 269.814 C 180.800 268.594,181.833 268.000,183.956 268.000 C 185.501 268.000,185.574 267.941,185.824 266.500 C 186.385 263.264,187.073 261.792,187.963 261.925 C 188.793 262.049,188.800 261.966,188.800 252.459 L 188.800 242.868 185.900 242.597 C 184.305 242.448,182.460 242.388,181.800 242.463 L 180.600 242.600 180.400 251.800 C 180.188 261.529,180.105 262.000,178.596 262.000 C 178.070 262.000,177.496 262.243,177.320 262.540 C 176.811 263.398,174.969 263.686,174.397 262.996 C 174.125 262.668,173.648 262.400,173.338 262.400 C 172.385 262.400,172.282 261.417,172.240 251.856 L 172.200 242.600 168.493 242.485 C 165.744 242.400,164.741 242.503,164.612 242.885 M194.274 242.659 C 193.808 243.126,193.972 247.012,194.480 247.520 C 194.744 247.784,195.532 248.000,196.231 248.000 C 197.991 248.000,198.523 248.742,197.783 250.167 C 197.364 250.975,197.200 252.685,197.200 256.246 L 197.200 261.200 195.600 261.200 L 194.000 261.200 194.000 264.351 C 194.000 268.669,193.566 268.485,203.358 268.330 C 212.750 268.181,212.217 268.415,212.544 264.300 L 212.790 261.200 210.895 261.214 C 209.853 261.222,208.551 261.477,208.001 261.781 C 206.202 262.777,206.000 262.115,206.000 255.231 C 206.000 248.013,206.004 248.003,209.180 247.994 C 212.246 247.985,212.467 247.773,212.322 244.963 L 212.200 242.600 203.374 242.493 C 198.520 242.433,194.425 242.508,194.274 242.659 M246.568 242.940 C 246.451 243.245,246.410 244.464,246.477 245.648 L 246.600 247.800 248.070 247.922 C 250.069 248.089,250.697 248.887,249.847 250.184 C 249.338 250.961,249.200 252.240,249.200 256.186 L 249.200 261.200 247.700 261.200 L 246.200 261.200 246.250 263.773 C 246.277 265.188,246.416 266.808,246.557 267.373 L 246.815 268.400 254.928 268.400 C 264.448 268.400,264.000 268.603,264.000 264.280 L 264.000 261.119 262.100 261.361 C 261.055 261.494,259.750 261.647,259.200 261.701 L 258.200 261.800 258.090 255.454 C 257.962 248.108,258.002 248.003,260.949 247.994 C 263.833 247.985,264.065 247.748,263.922 244.963 L 263.800 242.600 255.291 242.492 C 248.324 242.404,246.742 242.485,246.568 242.940 " stroke="none" fill="#042444" fill-rule="evenodd"></path><path id="path1" d="M215.600 147.221 C 214.830 147.637,211.500 149.432,208.200 151.210 C 204.900 152.989,201.930 154.616,201.600 154.827 C 201.270 155.038,200.257 155.552,199.348 155.970 C 195.902 157.556,196.000 157.173,196.000 169.102 C 196.000 183.245,194.819 182.369,205.800 176.372 C 207.120 175.651,209.100 174.582,210.200 173.996 C 215.149 171.360,216.245 170.710,217.116 169.891 L 218.046 169.018 217.923 158.128 C 217.789 146.224,217.753 146.059,215.600 147.221 M240.728 161.700 C 240.622 162.444,240.288 162.635,238.800 162.800 C 237.312 162.965,236.978 163.156,236.872 163.900 C 236.772 164.603,236.484 164.800,235.553 164.800 C 234.796 164.800,234.024 165.165,233.435 165.800 C 232.925 166.350,232.190 166.800,231.800 166.800 C 231.410 166.800,230.675 167.250,230.165 167.800 C 229.567 168.445,228.806 168.800,228.019 168.800 C 227.349 168.800,226.800 168.967,226.800 169.171 C 226.800 169.968,225.480 170.800,224.218 170.800 C 223.214 170.800,222.841 171.001,222.676 171.630 C 222.557 172.086,222.086 172.557,221.630 172.676 C 220.817 172.889,220.800 173.105,220.806 183.147 C 220.811 191.651,220.898 193.229,221.315 192.400 C 221.695 191.645,222.188 191.369,223.329 191.275 C 224.500 191.177,224.922 190.931,225.210 190.175 C 225.487 189.446,225.878 189.200,226.761 189.200 C 227.544 189.200,228.207 188.863,228.729 188.200 C 229.161 187.650,229.886 187.200,230.339 187.200 C 230.793 187.200,231.614 186.750,232.164 186.200 C 232.714 185.650,233.556 185.200,234.036 185.200 C 234.516 185.200,235.325 184.750,235.835 184.200 C 236.424 183.564,237.196 183.200,237.954 183.200 C 238.784 183.200,239.221 182.963,239.394 182.420 C 239.530 181.992,239.992 181.530,240.420 181.394 C 241.166 181.157,241.200 180.706,241.200 170.973 C 241.200 161.687,241.076 159.249,240.728 161.700 M135.467 239.467 C 134.155 240.779,135.200 241.200,139.767 241.200 C 143.031 241.200,144.399 241.343,144.563 241.700 C 144.689 241.975,144.676 241.750,144.533 241.200 C 144.391 240.650,144.273 239.962,144.270 239.671 C 144.268 239.319,143.988 239.228,143.433 239.400 C 141.659 239.952,138.800 240.106,138.800 239.651 C 138.800 239.170,135.922 239.011,135.467 239.467 M164.000 240.200 C 164.000 240.750,163.820 241.200,163.600 241.200 C 163.380 241.200,163.200 241.416,163.200 241.680 C 163.200 242.053,163.307 242.053,163.680 241.680 C 163.994 241.366,165.653 241.200,168.480 241.200 C 170.856 241.200,172.800 241.035,172.800 240.833 C 172.800 239.358,172.350 239.200,168.157 239.200 L 164.000 239.200 164.000 240.200 M180.000 240.240 C 180.000 240.731,179.865 241.209,179.700 241.301 C 179.535 241.393,179.640 241.408,179.933 241.334 C 180.226 241.260,181.801 241.200,183.433 241.200 C 186.268 241.200,186.400 241.159,186.400 240.274 C 186.400 239.382,186.279 239.347,183.200 239.347 C 180.156 239.347,180.000 239.391,180.000 240.240 M194.000 240.200 L 194.000 241.200 203.400 241.200 L 212.800 241.200 212.800 240.221 C 212.800 239.272,212.728 239.248,210.500 239.440 C 207.441 239.705,207.395 239.706,204.400 239.603 C 202.970 239.554,201.146 239.639,200.346 239.793 C 199.435 239.967,198.791 239.909,198.622 239.636 C 198.255 239.042,196.282 239.084,195.630 239.700 C 195.206 240.100,195.063 240.100,194.917 239.700 C 194.598 238.832,194.000 239.158,194.000 240.200 M224.000 240.252 L 224.000 241.200 230.353 241.200 C 236.307 241.200,236.719 241.151,236.910 240.423 C 237.225 239.217,234.867 238.521,234.188 239.619 C 234.008 239.911,233.773 239.909,233.416 239.613 C 232.238 238.636,224.000 239.194,224.000 240.252 M246.000 240.281 L 246.000 241.172 255.400 241.286 L 264.801 241.400 264.800 240.300 C 264.800 239.125,262.984 238.716,261.613 239.583 C 261.243 239.818,260.841 239.800,260.522 239.535 C 260.169 239.242,259.635 239.249,258.749 239.558 C 257.194 240.100,254.930 240.134,254.613 239.621 C 254.047 238.706,246.000 239.322,246.000 240.281 M191.700 241.476 C 192.085 241.576,192.715 241.576,193.100 241.476 C 193.485 241.375,193.170 241.293,192.400 241.293 C 191.630 241.293,191.315 241.375,191.700 241.476 M217.200 242.000 C 217.200 242.440,217.380 242.800,217.600 242.800 C 217.820 242.800,217.955 242.575,217.900 242.300 C 217.845 242.025,218.025 241.845,218.300 241.900 C 218.575 241.955,218.800 241.820,218.800 241.600 C 218.800 241.380,218.440 241.200,218.000 241.200 C 217.467 241.200,217.200 241.467,217.200 242.000 M244.200 241.558 C 243.298 241.757,243.164 241.887,243.661 242.084 C 244.025 242.227,244.655 242.093,245.061 241.785 C 245.468 241.477,245.710 241.241,245.600 241.260 C 245.490 241.279,244.860 241.413,244.200 241.558 M177.330 243.900 C 177.314 245.479,177.340 245.546,177.480 244.300 C 177.610 243.140,177.824 242.800,178.424 242.800 C 178.851 242.800,179.200 242.620,179.200 242.400 C 179.200 242.180,178.784 242.000,178.275 242.000 C 177.440 242.000,177.348 242.186,177.330 243.900 M215.276 246.700 C 215.466 247.686,217.200 247.727,217.200 246.745 C 217.200 246.211,216.908 246.000,216.171 246.000 C 215.406 246.000,215.176 246.180,215.276 246.700 M243.400 248.400 C 243.253 248.638,243.690 248.789,244.476 248.772 C 245.579 248.748,245.667 248.686,245.000 248.400 C 243.915 247.934,243.688 247.934,243.400 248.400 M207.497 249.493 C 206.906 250.146,206.800 251.095,206.800 255.731 L 206.800 261.200 207.800 261.200 L 208.800 261.200 208.760 255.900 C 208.711 249.419,208.506 248.378,207.497 249.493 M177.701 255.800 C 177.705 256.680,177.787 256.993,177.883 256.495 C 177.979 255.998,177.975 255.278,177.875 254.895 C 177.775 254.513,177.696 254.920,177.701 255.800 M215.200 263.800 C 215.200 264.173,215.578 264.400,216.200 264.400 C 216.822 264.400,217.200 264.173,217.200 263.800 C 217.200 263.427,216.822 263.200,216.200 263.200 C 215.578 263.200,215.200 263.427,215.200 263.800 M186.800 266.350 C 186.800 266.543,187.250 266.700,187.800 266.700 C 188.350 266.700,188.800 266.543,188.800 266.350 C 188.800 266.157,188.350 266.000,187.800 266.000 C 187.250 266.000,186.800 266.157,186.800 266.350 M243.200 268.400 C 243.200 268.620,243.650 268.800,244.200 268.800 C 244.959 268.800,245.200 269.009,245.200 269.667 C 245.200 270.143,245.312 270.422,245.448 270.285 C 246.075 269.658,245.164 268.000,244.192 268.000 C 243.647 268.000,243.200 268.180,243.200 268.400 M167.200 269.800 C 167.200 270.350,167.355 270.800,167.545 270.800 C 167.734 270.800,167.803 270.350,167.698 269.800 C 167.593 269.250,167.438 268.800,167.353 268.800 C 167.269 268.800,167.200 269.250,167.200 269.800 M182.800 269.713 C 182.800 270.383,183.051 270.646,183.743 270.704 C 184.544 270.770,184.657 270.633,184.496 269.791 C 184.244 268.473,182.800 268.407,182.800 269.713 M191.292 269.800 C 191.354 270.550,191.602 270.800,192.287 270.800 C 192.994 270.800,193.200 270.575,193.200 269.800 C 193.200 269.001,193.000 268.800,192.204 268.800 C 191.387 268.800,191.224 268.979,191.292 269.800 M221.600 269.800 C 221.600 270.350,221.780 270.800,222.000 270.800 C 222.220 270.800,222.400 270.350,222.400 269.800 C 222.400 269.250,222.220 268.800,222.000 268.800 C 221.780 268.800,221.600 269.250,221.600 269.800 " stroke="none" fill="#2c7cbc" fill-rule="evenodd"></path><path id="path2" d="M193.927 130.300 C 193.815 131.272,193.600 131.423,192.084 131.600 C 190.765 131.754,190.250 132.032,189.862 132.800 C 189.448 133.618,189.103 133.781,187.968 133.694 C 186.738 133.600,186.526 133.731,186.104 134.849 C 185.666 136.008,185.516 136.091,184.223 135.881 C 182.988 135.681,182.755 135.783,182.294 136.727 C 181.860 137.616,181.520 137.793,180.306 137.756 C 179.103 137.720,178.819 137.863,178.720 138.556 C 178.643 139.099,178.147 139.546,177.331 139.810 C 176.632 140.036,175.732 140.511,175.331 140.866 C 174.929 141.221,174.023 141.634,173.318 141.783 C 172.577 141.941,171.936 142.373,171.798 142.807 C 171.666 143.221,171.208 143.670,170.780 143.806 C 169.978 144.061,169.559 154.714,169.915 165.766 C 170.050 169.947,168.816 172.000,166.168 172.000 C 165.254 172.000,164.837 172.214,164.695 172.758 C 164.578 173.207,163.987 173.627,163.245 173.790 C 162.557 173.941,161.821 174.386,161.611 174.779 C 161.396 175.182,160.569 175.599,159.714 175.735 C 158.660 175.904,158.078 176.255,157.800 176.889 C 157.476 177.627,157.133 177.778,156.000 177.685 C 154.797 177.586,154.503 177.743,153.907 178.804 C 153.295 179.896,153.063 180.011,151.907 179.802 C 150.747 179.591,150.521 179.706,149.893 180.827 C 149.318 181.853,149.018 182.038,148.293 181.813 C 145.533 180.956,145.787 179.477,145.909 195.672 C 146.001 207.931,146.110 210.269,146.609 210.644 C 146.934 210.888,147.200 211.270,147.200 211.492 C 147.200 211.714,147.982 212.115,148.938 212.383 C 150.467 212.811,150.654 212.985,150.491 213.835 C 150.283 214.927,150.344 214.953,151.800 214.400 C 153.133 213.893,154.400 214.509,154.400 215.664 C 154.400 216.389,154.568 216.466,155.665 216.247 C 157.019 215.976,158.400 216.808,158.400 217.893 C 158.400 218.307,158.805 218.427,159.883 218.331 C 161.132 218.221,161.445 218.358,161.867 219.200 C 162.231 219.928,162.780 220.254,163.884 220.400 C 164.938 220.539,165.516 220.864,165.780 221.467 C 166.055 222.092,166.652 222.407,167.921 222.597 C 169.517 222.837,169.664 222.952,169.496 223.831 C 169.330 224.701,169.448 224.800,170.655 224.800 C 171.870 224.800,172.000 224.689,172.000 223.649 C 172.000 222.080,172.803 221.469,174.177 221.991 C 175.632 222.545,175.674 222.529,175.528 221.500 C 175.427 220.792,175.102 220.574,174.000 220.478 C 171.639 220.271,171.600 220.082,171.600 208.942 C 171.600 197.581,171.693 197.116,174.188 195.930 C 175.075 195.509,176.700 194.664,177.800 194.053 C 178.900 193.442,181.060 192.254,182.600 191.415 C 184.140 190.575,186.808 189.092,188.528 188.120 C 190.563 186.970,192.031 186.396,192.728 186.476 L 193.800 186.600 193.916 196.800 C 194.057 209.133,194.026 209.362,192.103 210.349 L 190.643 211.098 191.901 211.749 C 193.523 212.587,193.449 212.609,193.958 211.147 C 194.360 209.994,194.506 209.913,195.789 210.121 C 197.012 210.319,197.244 210.216,197.694 209.273 C 198.089 208.446,198.539 208.172,199.662 208.078 C 200.709 207.991,201.175 207.737,201.322 207.176 C 201.449 206.690,202.007 206.299,202.798 206.140 C 203.574 205.985,204.231 205.532,204.484 204.976 C 204.772 204.342,205.157 204.115,205.747 204.228 C 207.088 204.486,207.899 204.056,208.180 202.938 C 208.420 201.982,208.560 201.923,210.038 202.160 C 211.557 202.403,211.658 202.353,212.072 201.165 C 212.481 199.993,212.602 199.930,214.015 200.156 C 215.418 200.380,215.552 200.314,215.941 199.199 C 216.367 197.975,218.031 197.480,218.604 198.407 C 218.957 198.977,219.581 198.501,220.031 197.318 C 220.358 196.459,220.614 196.337,221.806 196.477 C 223.027 196.619,223.200 196.529,223.200 195.755 C 223.200 195.030,223.498 194.820,224.849 194.592 C 225.939 194.408,226.561 194.072,226.684 193.602 C 226.806 193.135,227.411 192.805,228.447 192.639 C 229.636 192.449,230.118 192.142,230.403 191.393 C 230.707 190.593,231.056 190.400,232.203 190.400 C 233.192 190.400,233.704 190.187,233.883 189.700 C 234.244 188.722,234.806 188.413,236.236 188.406 C 237.163 188.402,237.586 188.150,237.927 187.400 C 238.296 186.590,238.670 186.400,239.897 186.400 C 241.083 186.400,241.496 186.205,241.805 185.500 C 242.076 184.883,242.608 184.561,243.500 184.475 L 244.800 184.349 244.800 169.807 L 244.800 155.264 243.353 155.664 C 241.472 156.183,240.242 155.849,239.706 154.673 C 239.361 153.916,239.039 153.762,238.092 153.901 C 237.118 154.044,236.747 153.849,235.999 152.798 C 235.234 151.724,234.907 151.559,233.933 151.753 C 232.975 151.945,232.698 151.815,232.327 150.999 C 232.018 150.321,231.428 149.929,230.439 149.744 C 229.647 149.596,228.795 149.196,228.545 148.855 C 228.294 148.513,227.484 148.031,226.745 147.783 C 225.917 147.506,225.355 147.031,225.283 146.549 C 225.187 145.908,224.917 145.794,223.802 145.924 C 222.651 146.058,222.327 145.905,221.719 144.942 C 221.134 144.013,220.762 143.823,219.723 143.924 C 218.658 144.027,218.345 143.855,217.846 142.889 C 217.350 141.929,217.048 141.761,216.078 141.903 C 215.120 142.044,214.743 141.843,214.000 140.800 C 213.258 139.757,212.879 139.556,211.925 139.696 C 211.042 139.826,210.651 139.665,210.319 139.034 C 209.736 137.925,209.213 137.613,207.927 137.606 C 207.243 137.602,206.770 137.335,206.622 136.869 C 206.486 136.442,205.769 135.985,204.895 135.769 C 203.678 135.469,203.377 135.198,203.275 134.312 C 203.165 133.361,203.056 133.283,202.404 133.690 C 201.182 134.454,199.446 133.466,199.767 132.190 C 200.043 131.091,199.721 130.980,198.231 131.659 C 196.981 132.228,196.000 131.565,196.000 130.151 C 196.000 128.663,194.099 128.800,193.927 130.300 M217.923 158.128 L 218.046 169.018 217.116 169.891 C 216.245 170.710,215.149 171.360,210.200 173.996 C 209.100 174.582,207.120 175.651,205.800 176.372 C 194.819 182.369,196.000 183.245,196.000 169.102 C 196.000 157.173,195.902 157.556,199.348 155.970 C 200.257 155.552,201.270 155.038,201.600 154.827 C 201.930 154.616,204.900 152.989,208.200 151.210 C 211.500 149.432,214.830 147.637,215.600 147.221 C 217.753 146.059,217.789 146.224,217.923 158.128 M241.200 170.973 C 241.200 180.706,241.166 181.157,240.420 181.394 C 239.992 181.530,239.530 181.992,239.394 182.420 C 239.221 182.963,238.784 183.200,237.954 183.200 C 237.196 183.200,236.424 183.564,235.835 184.200 C 235.325 184.750,234.516 185.200,234.036 185.200 C 233.556 185.200,232.714 185.650,232.164 186.200 C 231.614 186.750,230.793 187.200,230.339 187.200 C 229.886 187.200,229.161 187.650,228.729 188.200 C 228.207 188.863,227.544 189.200,226.761 189.200 C 225.878 189.200,225.487 189.446,225.210 190.175 C 224.922 190.931,224.500 191.177,223.329 191.275 C 222.188 191.369,221.695 191.645,221.315 192.400 C 220.898 193.229,220.811 191.651,220.806 183.147 C 220.800 173.105,220.817 172.889,221.630 172.676 C 222.086 172.557,222.557 172.086,222.676 171.630 C 222.841 171.001,223.214 170.800,224.218 170.800 C 225.480 170.800,226.800 169.968,226.800 169.171 C 226.800 168.967,227.349 168.800,228.019 168.800 C 228.806 168.800,229.567 168.445,230.165 167.800 C 230.675 167.250,231.410 166.800,231.800 166.800 C 232.190 166.800,232.925 166.350,233.435 165.800 C 234.024 165.165,234.796 164.800,235.553 164.800 C 236.484 164.800,236.772 164.603,236.872 163.900 C 236.978 163.156,237.312 162.965,238.800 162.800 C 240.288 162.635,240.622 162.444,240.728 161.700 C 241.076 159.249,241.200 161.687,241.200 170.973 M188.100 212.516 C 186.928 213.045,186.965 213.364,188.264 213.956 C 189.114 214.344,189.394 214.336,189.658 213.920 C 190.491 212.606,189.628 211.827,188.100 212.516 M184.139 214.603 C 183.448 215.116,183.443 215.195,184.069 215.830 C 184.878 216.652,186.000 216.318,186.000 215.255 C 186.000 214.243,185.065 213.916,184.139 214.603 M180.081 216.733 C 179.664 217.004,179.680 217.169,180.162 217.568 C 180.861 218.148,182.518 217.757,182.291 217.066 C 182.099 216.483,180.772 216.283,180.081 216.733 M176.500 218.665 C 175.529 219.057,176.019 219.518,177.564 219.665 C 178.957 219.798,179.087 219.737,178.750 219.107 C 178.383 218.421,177.524 218.252,176.500 218.665 M217.839 241.937 C 217.454 242.560,218.185 243.128,218.682 242.592 C 219.061 242.184,219.042 242.025,218.595 241.853 C 218.282 241.733,217.942 241.771,217.839 241.937 " stroke="none" fill="#5db3fb" fill-rule="evenodd"></path><path id="path3" d="M138.800 239.600 C 138.800 240.082,141.478 240.082,142.600 239.600 C 143.176 239.353,142.755 239.248,141.100 239.228 C 139.815 239.212,138.800 239.376,138.800 239.600 M182.500 239.476 C 182.885 239.576,183.515 239.576,183.900 239.476 C 184.285 239.375,183.970 239.293,183.200 239.293 C 182.430 239.293,182.115 239.375,182.500 239.476 M198.659 239.619 C 198.942 239.902,199.720 239.916,201.039 239.664 L 203.000 239.289 200.620 239.245 C 198.960 239.214,198.367 239.327,198.659 239.619 M205.400 239.584 C 206.720 239.731,208.250 239.720,208.800 239.560 C 209.396 239.386,208.428 239.279,206.400 239.293 C 203.080 239.317,203.056 239.324,205.400 239.584 M248.500 239.476 C 248.885 239.576,249.515 239.576,249.900 239.476 C 250.285 239.375,249.970 239.293,249.200 239.293 C 248.430 239.293,248.115 239.375,248.500 239.476 M254.600 239.600 C 254.897 240.081,257.481 240.081,258.600 239.600 C 259.164 239.357,258.657 239.248,256.876 239.228 C 255.289 239.210,254.445 239.348,254.600 239.600 M135.200 256.006 L 135.200 270.812 146.900 270.706 L 158.600 270.600 158.726 261.900 L 158.853 253.200 157.981 253.200 C 157.208 253.200,157.140 253.347,157.385 254.500 C 157.931 257.073,158.096 266.673,157.610 267.581 C 157.097 268.540,137.349 268.744,136.463 267.800 C 136.253 267.576,136.025 261.946,135.944 255.000 L 135.800 242.600 139.800 242.600 L 143.800 242.600 143.907 252.057 C 144.024 262.369,144.165 263.013,146.074 261.931 L 147.000 261.406 145.900 261.276 L 144.800 261.147 144.800 251.806 C 144.800 240.102,145.322 241.200,139.757 241.200 L 135.200 241.200 135.200 256.006 M163.680 241.680 C 163.326 242.034,163.200 245.653,163.200 255.480 L 163.200 268.800 165.372 268.800 C 167.320 268.800,167.558 268.893,167.672 269.700 C 167.875 271.126,170.400 271.255,170.400 269.839 C 170.400 268.749,169.417 268.000,167.987 268.000 C 167.511 268.000,166.644 267.490,166.060 266.866 C 165.477 266.242,164.820 265.657,164.600 265.566 C 164.340 265.458,164.270 261.413,164.400 254.000 L 164.600 242.600 168.400 242.600 L 172.200 242.600 172.240 251.856 C 172.282 261.417,172.385 262.400,173.338 262.400 C 173.648 262.400,174.125 262.668,174.397 262.996 C 174.969 263.686,176.811 263.398,177.320 262.540 C 177.496 262.243,178.070 262.000,178.596 262.000 C 180.105 262.000,180.188 261.529,180.400 251.800 L 180.600 242.600 184.700 242.684 C 188.534 242.762,188.800 242.717,188.800 241.984 C 188.800 241.256,188.505 241.200,184.633 241.200 C 180.082 241.200,179.200 241.377,179.200 242.289 C 179.200 242.700,178.912 242.838,178.300 242.721 C 177.505 242.568,177.398 242.713,177.386 243.974 C 177.378 244.758,177.333 248.955,177.286 253.300 L 177.200 261.200 175.000 261.200 L 172.800 261.200 172.800 251.200 L 172.800 241.200 168.480 241.200 C 165.653 241.200,163.994 241.366,163.680 241.680 M192.500 241.489 L 191.200 241.651 191.200 245.243 C 191.200 247.885,191.332 248.818,191.700 248.770 C 194.823 248.365,197.152 248.835,197.298 249.900 L 197.450 251.000 197.879 250.000 C 198.445 248.680,197.875 248.000,196.200 248.000 C 194.416 248.000,193.933 247.258,194.078 244.732 L 194.200 242.600 203.200 242.600 L 212.200 242.600 212.322 244.963 C 212.467 247.773,212.246 247.985,209.180 247.994 C 206.004 248.003,206.000 248.013,206.000 255.231 C 206.000 262.115,206.202 262.777,208.001 261.781 L 209.000 261.228 207.900 261.214 L 206.800 261.200 206.800 255.662 C 206.800 249.054,206.938 248.800,210.531 248.800 L 212.800 248.800 212.800 245.000 L 212.800 241.200 203.300 241.264 C 198.075 241.299,193.215 241.401,192.500 241.489 M219.200 242.200 C 219.200 243.000,219.000 243.200,218.200 243.200 C 217.257 243.200,217.200 243.322,217.200 245.365 C 217.200 247.436,217.157 247.525,216.200 247.420 L 215.200 247.310 215.200 255.255 L 215.200 263.200 216.200 263.200 C 217.171 263.200,217.200 263.280,217.200 266.000 L 217.200 268.800 219.800 268.800 C 222.307 268.800,222.400 268.836,222.400 269.800 L 222.400 270.800 231.600 270.800 L 240.800 270.800 240.800 262.000 L 240.800 253.200 236.000 253.200 L 231.200 253.200 231.200 257.172 C 231.200 260.978,231.162 261.151,230.300 261.302 C 229.511 261.440,229.486 261.498,230.100 261.772 C 231.513 262.405,232.000 261.761,232.000 259.262 C 232.000 256.219,232.484 255.797,235.963 255.809 C 240.200 255.824,240.000 255.518,240.000 261.973 C 240.000 269.104,240.845 268.586,229.684 268.293 L 221.135 268.068 219.667 266.601 L 218.200 265.133 218.118 254.950 L 218.035 244.767 219.043 244.308 C 219.662 244.026,220.139 243.403,220.282 242.692 C 220.476 241.718,220.646 241.584,221.356 241.841 C 223.213 242.513,238.800 242.496,238.800 241.822 C 238.800 241.276,237.602 241.200,229.000 241.200 L 219.200 241.200 219.200 242.200 M245.061 241.781 C 244.655 242.091,244.070 242.248,243.761 242.130 C 243.309 241.956,243.200 242.527,243.200 245.071 C 243.200 247.784,243.299 248.239,243.900 248.301 C 249.083 248.834,249.151 248.855,249.281 249.948 L 249.406 251.000 249.931 250.074 C 250.636 248.831,249.988 248.082,248.070 247.922 L 246.600 247.800 246.600 245.200 L 246.600 242.600 255.200 242.600 L 263.800 242.600 263.922 244.963 C 264.065 247.743,263.831 247.985,260.980 247.994 C 258.025 248.003,258.000 248.065,258.000 255.293 C 258.000 262.187,258.147 262.608,260.226 261.661 C 261.277 261.182,261.794 251.215,260.800 250.600 C 259.546 249.825,260.438 248.840,262.500 248.721 L 264.600 248.600 264.600 245.000 L 264.600 241.400 255.200 241.308 C 247.620 241.235,245.657 241.326,245.061 241.781 M231.483 247.899 C 227.897 247.987,226.321 248.170,226.217 248.512 C 225.632 250.439,225.627 251.631,226.205 251.052 C 226.532 250.725,226.800 250.084,226.800 249.629 C 226.800 248.827,226.998 248.800,232.800 248.800 C 237.867 248.800,238.800 248.707,238.800 248.200 C 238.800 247.791,238.450 247.628,237.700 247.687 C 237.095 247.735,234.297 247.830,231.483 247.899 M225.036 252.652 C 224.402 254.301,224.786 259.200,225.548 259.200 C 226.925 259.200,227.353 253.338,226.036 252.515 C 225.415 252.127,225.227 252.153,225.036 252.652 M149.200 255.000 C 149.200 257.029,150.408 257.538,151.738 256.069 C 153.070 254.597,152.613 253.200,150.800 253.200 L 149.200 253.200 149.200 255.000 M177.883 256.495 C 177.787 256.993,177.705 256.680,177.701 255.800 C 177.696 254.920,177.775 254.513,177.875 254.895 C 177.975 255.278,177.979 255.998,177.883 256.495 M191.200 265.000 C 191.200 268.787,191.204 268.800,192.200 268.800 C 193.000 268.800,193.200 269.000,193.200 269.800 L 193.200 270.800 203.000 270.800 L 212.800 270.800 212.733 266.900 C 212.674 263.468,212.638 263.286,212.433 265.384 C 212.139 268.390,212.409 268.309,202.580 268.360 C 193.617 268.407,194.000 268.587,194.000 264.320 L 194.000 261.200 192.600 261.200 L 191.200 261.200 191.200 265.000 M243.200 264.576 C 243.200 267.955,243.213 268.000,244.192 268.000 C 245.216 268.000,245.973 269.473,245.414 270.377 C 245.233 270.670,248.177 270.800,254.976 270.800 L 264.800 270.800 264.800 266.000 C 264.800 263.067,264.644 261.200,264.400 261.200 C 264.168 261.200,264.000 262.507,264.000 264.320 C 264.000 268.597,264.439 268.400,254.928 268.400 L 246.815 268.400 246.543 267.317 C 246.394 266.721,246.255 265.146,246.236 263.817 L 246.200 261.400 244.700 261.276 L 243.200 261.152 243.200 264.576 M186.938 262.331 C 186.821 262.699,186.576 263.450,186.393 264.000 C 186.210 264.550,185.949 265.675,185.812 266.500 C 185.573 267.943,185.503 268.000,183.956 268.000 C 181.833 268.000,180.800 268.594,180.800 269.814 C 180.800 270.599,181.004 270.800,181.800 270.800 C 182.600 270.800,182.800 270.600,182.800 269.800 C 182.800 268.867,182.933 268.800,184.800 268.800 L 186.800 268.800 186.800 267.400 C 186.800 266.173,186.924 266.000,187.800 266.000 C 189.191 266.000,189.352 262.238,187.976 261.878 C 187.425 261.734,187.080 261.884,186.938 262.331 " stroke="none" fill="#3c546c" fill-rule="evenodd"></path><path id="path4" d="M189.200 130.200 C 189.200 131.133,189.067 131.200,187.200 131.200 C 185.345 131.200,185.200 131.271,185.200 132.178 C 185.200 133.061,185.015 133.168,183.300 133.278 C 181.679 133.382,181.381 133.532,181.272 134.300 C 181.169 135.029,180.890 135.200,179.801 135.200 C 178.523 135.200,177.200 136.028,177.200 136.829 C 177.200 137.033,176.750 137.200,176.200 137.200 C 175.400 137.200,175.200 137.400,175.200 138.200 C 175.200 139.133,175.067 139.200,173.200 139.200 C 171.333 139.200,171.200 139.267,171.200 140.200 C 171.200 141.044,171.013 141.200,170.000 141.200 C 167.216 141.200,167.200 141.287,167.200 155.977 L 167.200 169.154 165.500 169.277 C 164.187 169.372,163.710 169.605,163.405 170.300 C 163.188 170.795,162.674 171.200,162.263 171.200 C 161.852 171.200,161.161 171.650,160.729 172.200 C 160.163 172.919,159.557 173.200,158.571 173.200 C 157.383 173.200,157.200 173.331,157.200 174.178 C 157.200 175.061,157.015 175.168,155.300 175.278 C 153.679 175.382,153.381 175.532,153.272 176.300 C 153.159 177.094,152.913 177.200,151.172 177.200 C 149.335 177.200,149.200 177.269,149.200 178.200 C 149.200 178.967,148.990 179.203,148.300 179.213 C 146.477 179.238,145.848 180.984,147.452 181.564 C 148.991 182.121,149.763 181.776,150.223 180.327 C 150.436 179.657,150.702 179.568,151.846 179.782 C 153.077 180.013,153.284 179.915,153.907 178.804 C 154.503 177.743,154.797 177.586,156.000 177.685 C 157.133 177.778,157.476 177.627,157.800 176.889 C 158.078 176.255,158.660 175.904,159.714 175.735 C 160.569 175.599,161.396 175.182,161.611 174.779 C 161.821 174.386,162.557 173.941,163.245 173.790 C 163.987 173.627,164.578 173.207,164.695 172.758 C 164.837 172.214,165.254 172.000,166.168 172.000 C 168.816 172.000,170.050 169.947,169.915 165.766 C 169.559 154.714,169.978 144.061,170.780 143.806 C 171.208 143.670,171.666 143.221,171.798 142.807 C 171.936 142.373,172.577 141.941,173.318 141.783 C 174.023 141.634,174.929 141.221,175.331 140.866 C 175.732 140.511,176.632 140.036,177.331 139.810 C 178.147 139.546,178.643 139.099,178.720 138.556 C 178.819 137.863,179.103 137.720,180.306 137.756 C 181.520 137.793,181.860 137.616,182.294 136.727 C 182.755 135.783,182.988 135.681,184.223 135.881 C 185.516 136.091,185.666 136.008,186.104 134.849 C 186.526 133.731,186.738 133.600,187.968 133.694 C 189.103 133.781,189.448 133.618,189.862 132.800 C 190.250 132.032,190.765 131.754,192.084 131.600 C 195.244 131.232,194.857 129.200,191.627 129.200 C 189.305 129.200,189.200 129.243,189.200 130.200 M196.000 130.151 C 196.000 131.365,196.928 132.140,197.981 131.806 C 199.559 131.305,199.090 129.200,197.400 129.200 C 196.193 129.200,196.000 129.331,196.000 130.151 M199.778 132.070 C 199.452 133.098,200.543 134.095,201.797 133.915 C 202.380 133.832,202.634 133.444,202.725 132.500 C 202.886 130.838,200.289 130.459,199.778 132.070 M203.273 134.300 C 203.377 135.199,203.673 135.467,204.895 135.769 C 205.769 135.985,206.486 136.442,206.622 136.869 C 206.770 137.335,207.243 137.602,207.927 137.606 C 209.213 137.613,209.736 137.925,210.319 139.034 C 210.651 139.665,211.042 139.826,211.925 139.696 C 212.879 139.556,213.258 139.757,214.000 140.800 C 214.743 141.843,215.120 142.044,216.078 141.903 C 217.048 141.761,217.350 141.929,217.846 142.889 C 218.345 143.855,218.658 144.027,219.723 143.924 C 220.762 143.823,221.134 144.013,221.719 144.942 C 222.327 145.905,222.651 146.058,223.802 145.924 C 224.917 145.794,225.187 145.908,225.283 146.549 C 225.355 147.031,225.917 147.506,226.745 147.783 C 227.484 148.031,228.294 148.513,228.545 148.855 C 228.795 149.196,229.647 149.596,230.439 149.744 C 231.428 149.929,232.018 150.321,232.327 150.999 C 232.698 151.815,232.975 151.945,233.933 151.753 C 234.907 151.559,235.234 151.724,235.999 152.798 C 236.747 153.849,237.118 154.044,238.092 153.901 C 239.039 153.762,239.361 153.916,239.706 154.673 C 240.545 156.514,244.600 156.266,244.600 154.375 C 244.600 153.496,244.413 153.388,242.700 153.278 C 240.985 153.168,240.800 153.061,240.800 152.178 C 240.800 151.271,240.655 151.200,238.800 151.200 C 236.933 151.200,236.800 151.133,236.800 150.200 C 236.800 149.269,236.665 149.200,234.828 149.200 C 233.087 149.200,232.841 149.094,232.728 148.300 C 232.630 147.612,232.296 147.371,231.310 147.275 C 230.523 147.199,229.720 146.770,229.252 146.175 C 228.830 145.639,228.171 145.200,227.788 145.200 C 227.405 145.200,226.675 144.750,226.165 144.200 C 225.576 143.565,224.804 143.200,224.047 143.200 C 223.116 143.200,222.828 143.003,222.728 142.300 C 222.619 141.532,222.321 141.382,220.700 141.278 C 218.985 141.168,218.800 141.061,218.800 140.178 C 218.800 139.271,218.655 139.200,216.800 139.200 C 214.933 139.200,214.800 139.133,214.800 138.200 C 214.800 137.269,214.665 137.200,212.828 137.200 C 211.087 137.200,210.841 137.094,210.728 136.300 C 210.619 135.532,210.321 135.382,208.700 135.278 C 206.985 135.168,206.800 135.061,206.800 134.178 C 206.800 133.283,206.644 133.200,204.973 133.200 C 203.217 133.200,203.152 133.242,203.273 134.300 M244.800 171.000 C 244.800 177.995,244.951 182.800,245.171 182.800 C 246.661 182.800,246.800 181.795,246.800 171.000 C 246.800 160.205,246.661 159.200,245.171 159.200 C 244.951 159.200,244.800 164.005,244.800 171.000 M143.210 196.447 C 143.240 213.277,143.165 212.800,145.771 212.800 C 147.029 212.800,147.200 212.920,147.200 213.800 C 147.200 215.285,150.208 215.317,150.491 213.835 C 150.654 212.985,150.467 212.811,148.938 212.383 C 147.982 212.115,147.200 211.669,147.200 211.391 C 147.200 211.113,146.930 210.782,146.600 210.655 C 146.083 210.457,146.000 208.503,146.000 196.445 C 146.000 181.045,146.017 181.200,144.348 181.200 L 143.182 181.200 143.210 196.447 M242.080 184.880 C 241.816 185.144,241.600 185.594,241.600 185.880 C 241.600 186.220,241.045 186.400,239.991 186.400 C 238.664 186.400,238.303 186.575,237.927 187.400 C 237.586 188.150,237.163 188.402,236.236 188.406 C 234.806 188.413,234.244 188.722,233.883 189.700 C 233.704 190.187,233.192 190.400,232.203 190.400 C 231.056 190.400,230.707 190.593,230.403 191.393 C 230.118 192.142,229.636 192.449,228.447 192.639 C 227.411 192.805,226.806 193.135,226.684 193.602 C 226.561 194.072,225.939 194.408,224.849 194.592 C 222.271 195.027,222.393 196.800,225.000 196.800 C 226.653 196.800,226.800 196.719,226.800 195.800 C 226.800 194.867,226.933 194.800,228.800 194.800 C 230.667 194.800,230.800 194.733,230.800 193.800 C 230.800 192.867,230.933 192.800,232.800 192.800 C 234.667 192.800,234.800 192.733,234.800 191.800 C 234.800 190.859,236.367 190.416,238.500 190.753 C 238.665 190.779,238.779 190.665,238.753 190.500 C 238.538 189.140,238.867 188.840,240.700 188.722 C 242.321 188.618,242.619 188.468,242.728 187.700 C 242.820 187.049,243.124 186.800,243.828 186.800 C 244.641 186.800,244.800 186.604,244.800 185.600 C 244.800 184.292,243.114 183.846,242.080 184.880 M188.613 188.041 C 187.080 188.931,184.470 190.397,182.813 191.299 C 181.156 192.200,178.900 193.439,177.800 194.051 C 176.700 194.663,175.075 195.509,174.188 195.930 C 171.693 197.116,171.600 197.581,171.600 208.942 C 171.600 220.082,171.639 220.271,174.000 220.478 C 175.102 220.574,175.427 220.792,175.528 221.500 C 175.674 222.529,175.632 222.545,174.177 221.991 C 172.797 221.467,172.000 222.081,172.000 223.670 C 172.000 225.256,175.901 225.282,176.595 223.700 C 176.837 223.148,177.340 222.800,177.895 222.800 C 178.594 222.800,178.800 222.572,178.800 221.800 C 178.800 220.867,178.933 220.800,180.800 220.800 C 182.655 220.800,182.800 220.729,182.800 219.822 C 182.800 218.939,182.985 218.832,184.700 218.722 C 186.321 218.618,186.619 218.468,186.728 217.700 C 186.841 216.906,187.087 216.800,188.828 216.800 C 190.665 216.800,190.800 216.731,190.800 215.800 C 190.800 214.867,190.933 214.800,192.800 214.800 C 194.655 214.800,194.800 214.729,194.800 213.822 C 194.800 212.939,194.985 212.832,196.700 212.722 C 198.321 212.618,198.619 212.468,198.728 211.700 C 198.813 211.103,199.130 210.800,199.670 210.800 C 200.118 210.800,200.839 210.350,201.271 209.800 C 201.837 209.081,202.443 208.800,203.429 208.800 C 204.625 208.800,204.800 208.672,204.800 207.800 C 204.800 206.867,204.933 206.800,206.800 206.800 C 208.667 206.800,208.800 206.733,208.800 205.800 C 208.800 204.867,208.933 204.800,210.800 204.800 C 212.655 204.800,212.800 204.729,212.800 203.822 C 212.800 202.939,212.985 202.832,214.700 202.722 C 216.306 202.619,216.619 202.464,216.725 201.722 C 216.827 201.001,217.151 200.822,218.525 200.722 C 219.812 200.628,220.291 200.392,220.595 199.700 C 220.837 199.148,221.340 198.800,221.895 198.800 C 222.634 198.800,222.800 198.580,222.800 197.600 C 222.800 195.984,220.610 195.797,220.015 197.361 C 219.580 198.505,218.952 198.970,218.604 198.407 C 218.031 197.480,216.367 197.975,215.941 199.199 C 215.552 200.314,215.418 200.380,214.015 200.156 C 212.602 199.930,212.481 199.993,212.072 201.165 C 211.658 202.353,211.557 202.403,210.038 202.160 C 208.560 201.923,208.420 201.982,208.180 202.938 C 207.899 204.056,207.088 204.486,205.747 204.228 C 205.157 204.115,204.772 204.342,204.484 204.976 C 204.231 205.532,203.574 205.985,202.798 206.140 C 202.007 206.299,201.449 206.690,201.322 207.176 C 201.175 207.737,200.709 207.991,199.662 208.078 C 198.539 208.172,198.089 208.446,197.694 209.273 C 197.244 210.216,197.012 210.319,195.789 210.121 C 194.506 209.913,194.360 209.994,193.958 211.147 C 193.449 212.609,193.523 212.587,191.901 211.749 L 190.643 211.098 192.103 210.349 C 194.026 209.362,194.057 209.133,193.916 196.800 L 193.800 186.600 192.600 186.511 C 191.806 186.452,190.458 186.969,188.613 188.041 M189.994 212.943 C 189.979 214.088,189.355 214.454,188.264 213.956 C 186.965 213.364,186.928 213.045,188.100 212.516 C 189.115 212.058,190.003 212.258,189.994 212.943 M151.900 214.276 C 150.714 214.586,150.953 216.800,152.172 216.800 C 152.876 216.800,153.180 217.049,153.272 217.700 C 153.381 218.468,153.679 218.618,155.300 218.722 C 157.133 218.840,157.462 219.140,157.247 220.500 C 157.221 220.665,157.335 220.779,157.500 220.753 C 159.633 220.416,161.200 220.859,161.200 221.800 C 161.200 222.733,161.333 222.800,163.200 222.800 C 165.078 222.800,165.200 222.862,165.200 223.821 C 165.200 225.271,169.317 225.183,169.524 223.728 C 169.631 222.978,169.405 222.820,167.905 222.595 C 166.651 222.407,166.054 222.090,165.780 221.467 C 165.516 220.864,164.938 220.539,163.884 220.400 C 162.780 220.254,162.231 219.928,161.867 219.200 C 161.445 218.358,161.132 218.221,159.883 218.331 C 158.805 218.427,158.400 218.307,158.400 217.893 C 158.400 216.808,157.019 215.976,155.665 216.247 C 154.568 216.466,154.400 216.389,154.400 215.664 C 154.400 214.986,153.235 213.860,152.726 214.046 C 152.657 214.072,152.285 214.175,151.900 214.276 M186.000 215.255 C 186.000 216.318,184.878 216.652,184.069 215.830 C 183.443 215.195,183.448 215.116,184.139 214.603 C 185.065 213.916,186.000 214.243,186.000 215.255 M182.291 217.066 C 182.518 217.757,180.861 218.148,180.162 217.568 C 179.680 217.169,179.664 217.004,180.081 216.733 C 180.772 216.283,182.099 216.483,182.291 217.066 M178.750 219.107 C 179.087 219.737,178.957 219.798,177.564 219.665 C 176.019 219.518,175.529 219.057,176.500 218.665 C 177.524 218.252,178.383 218.421,178.750 219.107 M144.542 240.690 C 144.679 241.520,144.793 246.475,144.796 251.700 L 144.800 261.200 145.811 261.200 L 146.822 261.200 146.788 250.283 L 146.753 239.367 145.523 239.273 C 144.310 239.180,144.296 239.202,144.542 240.690 M161.200 253.000 L 161.200 266.800 162.200 266.800 L 163.200 266.800 163.200 254.000 C 163.200 245.733,163.342 241.200,163.600 241.200 C 163.820 241.200,164.000 240.750,164.000 240.200 C 164.000 239.324,163.827 239.200,162.600 239.200 L 161.200 239.200 161.200 253.000 M177.200 240.600 C 177.200 242.146,178.302 242.555,179.429 241.429 C 180.555 240.302,180.146 239.200,178.600 239.200 C 177.267 239.200,177.200 239.267,177.200 240.600 M186.400 240.173 C 186.400 241.053,186.576 241.200,187.628 241.200 C 188.672 241.200,188.837 241.066,188.728 240.300 C 188.527 238.885,186.400 238.770,186.400 240.173 M191.200 240.200 C 191.200 241.076,191.373 241.200,192.600 241.200 C 193.827 241.200,194.000 241.076,194.000 240.200 C 194.000 239.324,193.827 239.200,192.600 239.200 C 191.373 239.200,191.200 239.324,191.200 240.200 M219.553 239.598 C 219.527 239.709,219.533 239.954,219.567 240.142 C 219.600 240.330,219.416 240.740,219.157 241.052 C 218.898 241.364,218.802 241.735,218.943 241.876 C 219.084 242.018,219.200 241.923,219.200 241.667 C 219.200 241.363,220.038 241.200,221.600 241.200 C 223.908 241.200,224.000 241.161,224.000 240.177 C 224.000 239.235,219.767 238.684,219.553 239.598 M236.892 240.200 C 236.824 241.021,236.987 241.200,237.804 241.200 C 238.352 241.200,238.800 241.009,238.800 240.776 C 238.800 240.543,238.592 240.481,238.338 240.638 C 238.038 240.824,237.986 240.747,238.189 240.417 C 238.372 240.122,238.272 239.765,237.951 239.561 C 237.116 239.032,236.982 239.113,236.892 240.200 M243.200 240.400 C 243.200 241.633,243.873 241.931,245.367 241.357 C 246.712 240.841,246.128 239.200,244.600 239.200 C 243.311 239.200,243.200 239.295,243.200 240.400 M264.800 244.000 L 264.800 248.800 262.800 248.800 C 260.922 248.800,260.800 248.862,260.800 249.821 C 260.800 250.961,264.937 251.233,265.050 250.100 C 265.078 249.825,265.123 249.433,265.150 249.228 C 265.178 249.023,265.605 248.798,266.100 248.728 C 267.253 248.564,267.499 241.010,266.386 239.967 C 264.962 238.633,264.800 239.045,264.800 244.000 M133.200 255.520 C 133.200 270.070,133.271 270.800,134.680 270.800 C 135.097 270.800,135.200 267.877,135.200 256.000 L 135.200 241.200 134.200 241.200 L 133.200 241.200 133.200 255.520 M172.800 251.200 L 172.800 261.200 173.800 261.200 L 174.800 261.200 174.800 251.200 L 174.800 241.200 173.800 241.200 L 172.800 241.200 172.800 251.200 M212.800 245.000 L 212.800 248.800 210.572 248.800 C 208.491 248.800,208.353 248.859,208.472 249.700 C 208.682 251.179,212.800 251.294,212.800 249.821 C 212.800 248.897,213.258 248.594,214.444 248.734 C 214.919 248.790,214.853 242.346,214.373 241.767 C 213.180 240.330,212.800 241.110,212.800 245.000 M216.400 243.156 C 214.887 243.573,214.694 246.000,216.175 246.000 C 217.075 246.000,217.200 245.833,217.200 244.633 C 217.200 243.882,217.425 243.176,217.700 243.065 C 218.423 242.773,217.571 242.833,216.400 243.156 M191.200 249.800 C 191.200 250.733,191.333 250.800,193.200 250.800 C 195.492 250.800,195.257 250.083,195.269 257.100 C 195.276 261.162,195.285 261.200,196.238 261.200 L 197.200 261.200 197.200 255.000 L 197.200 248.800 194.200 248.800 C 191.267 248.800,191.200 248.822,191.200 249.800 M226.800 249.800 L 226.800 250.800 232.800 250.800 L 238.800 250.800 238.800 249.800 L 238.800 248.800 232.800 248.800 L 226.800 248.800 226.800 249.800 M243.272 249.700 C 243.485 251.196,249.200 251.309,249.200 249.818 C 249.200 248.817,249.149 248.800,246.172 248.800 C 243.261 248.800,243.149 248.835,243.272 249.700 M158.800 262.000 L 158.800 270.800 159.800 270.800 L 160.800 270.800 160.800 262.000 L 160.800 253.200 159.800 253.200 L 158.800 253.200 158.800 262.000 M229.200 257.200 L 229.200 261.200 230.200 261.200 L 231.200 261.200 231.200 257.200 L 231.200 253.200 230.200 253.200 L 229.200 253.200 229.200 257.200 M240.800 261.996 L 240.800 270.791 241.772 270.711 L 242.744 270.630 242.785 261.915 L 242.826 253.200 241.813 253.200 L 240.800 253.200 240.800 261.996 M226.800 260.200 C 226.800 261.000,227.000 261.200,227.800 261.200 C 228.865 261.200,229.114 260.474,228.320 259.680 C 227.526 258.886,226.800 259.135,226.800 260.200 M212.800 265.621 L 212.800 270.037 213.797 269.319 C 215.254 268.269,215.172 261.565,213.700 261.341 C 212.813 261.207,212.800 261.268,212.800 265.621 M264.800 266.000 C 264.800 270.791,264.802 270.800,265.753 270.800 C 266.932 270.800,267.066 270.326,267.165 265.837 C 267.246 262.164,266.911 261.200,265.551 261.200 C 264.858 261.200,264.800 261.571,264.800 266.000 M215.200 265.600 C 215.200 266.613,215.356 266.800,216.200 266.800 C 217.044 266.800,217.200 266.613,217.200 265.600 C 217.200 264.587,217.044 264.400,216.200 264.400 C 215.356 264.400,215.200 264.587,215.200 265.600 M186.800 267.800 C 186.800 268.649,186.615 268.800,185.572 268.800 C 184.528 268.800,184.363 268.934,184.472 269.700 C 184.651 270.961,186.546 270.982,186.725 269.725 C 186.802 269.179,187.179 268.802,187.725 268.725 C 189.085 268.531,189.177 266.800,187.828 266.800 C 186.998 266.800,186.800 266.993,186.800 267.800 M165.200 269.800 C 165.200 270.600,165.400 270.800,166.200 270.800 C 167.000 270.800,167.200 270.600,167.200 269.800 C 167.200 269.000,167.000 268.800,166.200 268.800 C 165.400 268.800,165.200 269.000,165.200 269.800 M219.200 269.800 C 219.200 270.644,219.387 270.800,220.400 270.800 C 221.413 270.800,221.600 270.644,221.600 269.800 C 221.600 268.956,221.413 268.800,220.400 268.800 C 219.387 268.800,219.200 268.956,219.200 269.800 M243.347 269.300 C 243.599 270.961,245.200 271.393,245.200 269.800 C 245.200 269.010,244.998 268.800,244.235 268.800 C 243.690 268.800,243.304 269.017,243.347 269.300 M173.460 271.411 C 173.957 272.707,176.521 272.987,177.900 271.897 C 178.910 271.099,178.341 270.800,175.813 270.800 C 173.656 270.800,173.264 270.902,173.460 271.411 " stroke="none" fill="#95cdfc" fill-rule="evenodd"></path></g></svg>