<svg id="svg" version="1.1" xmlns="http://www.w3.org/2000/svg" xmlns:xlink="http://www.w3.org/1999/xlink" width="400" height="400" viewBox="0, 0, 400,400"><g id="svgg"><path id="path0" d="M193.421 131.577 C 193.034 132.005,192.177 132.473,191.518 132.618 C 190.858 132.763,189.981 133.219,189.569 133.631 C 189.157 134.043,188.321 134.500,187.710 134.646 C 187.100 134.793,186.280 135.245,185.889 135.652 C 185.498 136.058,184.688 136.510,184.089 136.656 C 183.490 136.802,182.491 137.344,181.869 137.861 C 181.247 138.377,180.346 138.800,179.866 138.800 C 179.385 138.800,178.773 139.151,178.505 139.580 C 178.237 140.009,177.379 140.480,176.598 140.627 C 175.817 140.773,175.005 141.218,174.792 141.614 C 174.580 142.011,173.830 142.462,173.126 142.616 C 170.559 143.180,170.620 142.859,170.400 157.082 L 170.200 170.022 168.444 171.411 C 167.478 172.175,166.306 172.800,165.840 172.800 C 165.374 172.800,164.773 173.151,164.505 173.580 C 164.237 174.009,163.379 174.480,162.598 174.627 C 161.817 174.773,161.005 175.218,160.792 175.614 C 160.580 176.011,159.884 176.450,159.245 176.590 C 158.606 176.731,157.776 177.185,157.400 177.600 C 157.024 178.015,156.177 178.473,155.518 178.618 C 154.858 178.763,153.981 179.219,153.569 179.631 C 153.157 180.043,152.321 180.500,151.710 180.646 C 151.100 180.793,150.271 181.255,149.869 181.672 C 149.468 182.090,148.631 182.534,148.011 182.658 C 146.443 182.971,146.394 183.426,146.440 197.150 C 146.486 210.866,146.466 210.737,148.609 211.471 C 149.484 211.770,150.380 212.250,150.600 212.538 C 150.820 212.825,151.593 213.265,152.319 213.516 C 153.044 213.766,154.103 214.338,154.673 214.786 C 155.242 215.234,155.919 215.600,156.176 215.600 C 156.434 215.600,157.255 216.050,158.000 216.600 C 158.745 217.150,159.609 217.600,159.920 217.600 C 160.230 217.600,161.019 218.050,161.673 218.600 C 162.327 219.150,163.110 219.600,163.413 219.600 C 163.716 219.600,164.628 220.050,165.438 220.600 C 166.249 221.150,167.129 221.600,167.395 221.600 C 167.660 221.600,168.293 221.960,168.800 222.400 C 170.027 223.464,170.955 223.409,172.164 222.200 C 172.714 221.650,173.622 221.200,174.182 221.200 C 174.826 221.200,175.200 220.977,175.200 220.592 C 175.200 220.141,174.938 220.051,174.184 220.240 C 171.764 220.847,171.600 220.149,171.600 209.266 C 171.600 198.129,171.773 197.177,173.976 196.185 C 174.759 195.833,176.480 194.931,177.800 194.181 C 179.120 193.431,180.830 192.487,181.600 192.083 C 182.370 191.678,184.350 190.615,186.000 189.719 C 194.447 185.134,193.600 184.200,193.600 198.109 L 193.600 209.442 191.900 210.296 L 190.200 211.150 191.900 211.175 C 193.148 211.193,193.600 211.042,193.600 210.606 C 193.600 210.235,194.281 209.840,195.413 209.555 C 196.410 209.304,197.398 208.777,197.608 208.385 C 197.826 207.977,198.676 207.556,199.595 207.401 C 200.557 207.238,201.200 206.910,201.200 206.581 C 201.200 206.279,201.965 205.808,202.900 205.533 C 203.835 205.259,204.835 204.712,205.123 204.317 C 205.410 203.923,205.981 203.600,206.392 203.600 C 206.803 203.600,207.673 203.150,208.327 202.600 C 208.981 202.050,209.887 201.600,210.342 201.600 C 210.796 201.600,211.580 201.172,212.084 200.650 C 212.588 200.127,213.532 199.575,214.182 199.422 C 214.832 199.269,215.596 198.812,215.880 198.407 C 216.164 198.002,217.102 197.552,217.966 197.406 C 218.830 197.260,219.629 196.902,219.741 196.610 C 219.852 196.319,220.632 195.860,221.472 195.591 C 222.312 195.322,223.360 194.784,223.800 194.397 C 224.240 194.009,225.050 193.560,225.600 193.399 C 226.150 193.237,226.877 192.864,227.215 192.568 C 227.553 192.272,228.453 191.740,229.215 191.384 C 229.977 191.029,231.500 190.221,232.600 189.590 C 233.700 188.958,235.345 188.087,236.256 187.654 C 237.167 187.221,238.024 186.684,238.162 186.462 C 238.299 186.240,239.034 185.853,239.796 185.601 C 240.558 185.350,241.726 184.667,242.391 184.083 L 243.600 183.022 243.596 171.411 C 243.590 157.579,243.523 156.965,241.985 156.657 C 241.367 156.533,240.532 156.090,240.131 155.672 C 239.729 155.255,238.900 154.793,238.290 154.646 C 237.679 154.500,236.850 154.050,236.448 153.648 C 236.045 153.245,235.235 152.795,234.648 152.648 C 234.060 152.500,233.243 152.043,232.831 151.631 C 232.419 151.219,231.522 150.758,230.837 150.608 C 230.153 150.458,229.420 150.011,229.208 149.614 C 228.995 149.218,228.192 148.775,227.422 148.631 C 226.653 148.486,225.793 148.039,225.511 147.638 C 225.230 147.236,224.406 146.777,223.681 146.618 C 222.955 146.458,222.147 145.984,221.885 145.564 C 221.622 145.144,221.015 144.800,220.534 144.800 C 220.054 144.800,219.153 144.377,218.531 143.861 C 217.909 143.344,216.900 142.800,216.290 142.651 C 215.679 142.502,214.850 142.050,214.448 141.648 C 214.045 141.245,213.235 140.795,212.648 140.648 C 212.060 140.500,211.243 140.043,210.831 139.631 C 210.419 139.219,209.523 138.759,208.841 138.609 C 208.159 138.459,207.376 138.015,207.100 137.622 C 206.825 137.229,206.006 136.777,205.281 136.618 C 204.555 136.458,203.747 135.984,203.485 135.564 C 203.222 135.144,202.593 134.800,202.086 134.800 C 201.579 134.800,200.714 134.350,200.164 133.800 C 199.614 133.250,198.890 132.800,198.556 132.800 C 197.731 132.800,196.272 132.005,195.880 131.342 C 195.420 130.562,194.237 130.675,193.421 131.577 M187.641 212.560 L 186.681 213.092 187.877 213.267 C 189.436 213.496,190.007 213.283,189.735 212.574 C 189.464 211.870,188.894 211.866,187.641 212.560 M184.051 214.555 L 183.101 215.081 183.989 215.313 C 185.070 215.596,186.085 215.256,185.892 214.676 C 185.673 214.019,185.090 213.980,184.051 214.555 M180.220 216.536 C 179.325 217.190,180.172 217.689,181.561 217.326 C 182.556 217.066,182.649 216.581,181.767 216.243 C 180.961 215.933,181.073 215.912,180.220 216.536 M176.221 218.766 C 176.097 218.967,176.205 219.202,176.462 219.287 C 177.201 219.534,179.200 219.145,179.200 218.755 C 179.200 218.285,176.512 218.296,176.221 218.766 M139.781 241.499 C 144.278 241.694,144.000 241.014,144.000 251.826 C 144.000 261.012,144.014 261.164,144.889 261.777 C 146.135 262.650,149.349 262.602,150.032 261.700 C 150.482 261.104,150.478 261.075,150.001 261.500 C 149.322 262.105,146.246 262.160,145.174 261.586 C 144.443 261.195,144.400 260.657,144.400 251.848 C 144.400 240.655,144.620 241.157,139.769 241.280 L 136.600 241.361 139.781 241.499 M164.223 242.089 C 163.691 242.848,163.613 244.535,163.687 253.589 L 163.775 264.200 163.987 253.400 C 164.104 247.460,164.346 242.375,164.524 242.100 C 165.063 241.267,170.775 241.431,171.478 242.300 C 171.989 242.932,172.002 242.912,171.608 242.100 C 170.951 240.745,165.170 240.736,164.223 242.089 M179.854 242.029 L 178.800 242.858 178.800 251.980 C 178.800 262.109,178.860 261.880,176.079 262.420 L 174.600 262.708 175.878 262.754 C 176.701 262.784,177.555 262.457,178.278 261.835 L 179.400 260.871 179.529 251.935 C 179.684 241.140,179.554 241.450,183.870 241.668 C 187.639 241.858,187.370 241.106,187.614 252.132 L 187.828 261.800 187.914 252.300 C 188.017 240.907,188.129 241.200,183.654 241.200 C 181.482 241.200,180.688 241.373,179.854 242.029 M193.642 241.634 C 193.115 241.845,192.785 242.118,192.908 242.241 C 193.031 242.364,193.495 242.270,193.939 242.032 C 195.443 241.228,210.800 241.462,211.478 242.300 C 211.989 242.932,212.002 242.912,211.608 242.100 C 211.132 241.117,195.920 240.722,193.642 241.634 M223.228 241.551 C 222.693 241.701,225.323 241.753,229.071 241.667 C 234.085 241.552,236.138 241.645,236.843 242.021 C 237.716 242.486,237.752 242.473,237.251 241.865 C 236.674 241.166,225.504 240.916,223.228 241.551 M245.670 242.126 C 244.281 243.604,244.420 246.988,245.900 247.733 C 247.207 248.392,250.525 248.985,249.600 248.395 C 249.270 248.184,248.603 248.009,248.119 248.006 C 245.159 247.986,243.765 243.832,246.186 242.246 C 247.815 241.179,263.006 241.290,263.586 242.374 C 264.876 244.784,263.872 247.991,261.820 248.013 C 260.325 248.028,259.189 248.832,259.232 249.844 C 259.255 250.404,259.319 250.445,259.478 250.000 C 259.814 249.057,260.857 248.400,262.014 248.400 C 264.218 248.400,265.353 244.338,263.777 242.089 C 262.786 240.673,247.004 240.705,245.670 242.126 M219.931 242.613 C 216.806 244.309,215.292 259.064,217.657 264.756 C 218.763 267.417,219.025 267.194,217.991 264.472 C 217.313 262.690,217.201 261.402,217.204 255.496 C 217.210 246.344,217.921 243.920,221.000 242.561 C 221.660 242.270,221.930 242.031,221.600 242.032 C 221.270 242.032,220.519 242.293,219.931 242.613 M136.178 255.400 C 136.179 262.440,136.233 265.264,136.299 261.675 C 136.366 258.086,136.366 252.326,136.299 248.875 C 136.233 245.424,136.178 248.360,136.178 255.400 M192.476 244.851 C 192.387 247.490,192.784 247.976,195.284 248.283 C 196.228 248.399,197.225 248.777,197.500 249.123 C 197.775 249.470,198.000 249.575,198.000 249.356 C 198.000 248.627,197.051 248.000,195.946 248.000 C 193.452 248.000,192.853 247.432,192.696 244.918 L 192.551 242.600 192.476 244.851 M237.594 245.082 C 237.487 246.446,237.545 247.417,237.723 247.239 C 237.900 247.060,237.988 245.944,237.917 244.757 L 237.789 242.600 237.594 245.082 M211.400 247.600 C 211.264 247.820,210.632 248.000,209.995 248.000 C 206.739 248.000,206.413 248.713,206.405 255.851 C 206.399 261.844,206.490 262.034,209.528 262.387 C 211.062 262.565,211.412 262.766,211.643 263.600 C 211.875 264.437,211.927 264.466,211.960 263.780 C 212.018 262.588,211.238 262.000,209.596 262.000 C 206.848 262.000,206.720 261.684,206.868 255.249 C 207.015 248.890,207.226 248.400,209.827 248.400 C 210.528 248.400,211.326 248.130,211.600 247.800 C 211.874 247.470,211.997 247.200,211.873 247.200 C 211.749 247.200,211.536 247.380,211.400 247.600 M226.429 249.054 C 225.973 249.634,225.616 250.489,225.636 250.954 C 225.662 251.567,225.772 251.456,226.034 250.550 C 226.591 248.631,227.107 248.437,232.024 248.299 L 236.600 248.171 231.929 248.086 C 227.314 248.001,227.248 248.013,226.429 249.054 M198.159 255.600 C 198.159 258.790,198.221 260.095,198.297 258.500 C 198.373 256.905,198.373 254.295,198.297 252.700 C 198.221 251.105,198.159 252.410,198.159 255.600 M258.887 255.851 C 258.815 260.185,258.909 261.192,259.421 261.618 C 260.125 262.202,263.677 262.848,263.359 262.334 C 263.246 262.150,262.568 262.000,261.853 262.000 C 259.420 262.000,259.228 261.568,259.094 255.800 L 258.974 250.600 258.887 255.851 M150.554 254.977 C 150.432 255.294,150.417 255.879,150.520 256.277 C 150.645 256.761,150.723 256.646,150.754 255.927 C 150.790 255.078,151.030 254.818,151.900 254.687 L 153.000 254.520 151.887 254.460 C 151.242 254.425,150.682 254.642,150.554 254.977 M232.661 254.700 C 232.558 254.865,233.582 254.950,234.937 254.888 C 239.078 254.700,239.569 254.523,236.124 254.460 C 234.322 254.427,232.763 254.535,232.661 254.700 M158.333 260.446 C 158.443 264.341,158.337 266.778,158.018 267.746 L 157.538 269.200 147.202 269.200 C 140.543 269.200,136.794 269.054,136.663 268.790 C 136.552 268.565,136.506 268.610,136.563 268.890 C 136.643 269.284,139.042 269.424,147.151 269.507 L 157.635 269.613 158.218 268.220 C 158.828 266.759,158.979 258.223,158.437 255.800 C 158.289 255.140,158.243 257.231,158.333 260.446 M240.157 262.000 C 240.157 264.970,240.220 266.185,240.297 264.700 C 240.374 263.215,240.374 260.785,240.297 259.300 C 240.220 257.815,240.157 259.030,240.157 262.000 M225.660 260.071 C 225.567 261.739,226.540 262.411,228.929 262.328 L 231.000 262.256 229.010 262.102 C 226.696 261.924,226.109 261.542,225.884 260.071 L 225.720 259.000 225.660 260.071 M172.025 260.851 C 171.993 261.674,173.010 262.541,173.687 262.269 C 174.004 262.142,173.928 262.051,173.487 262.032 C 173.095 262.014,172.611 261.595,172.412 261.100 C 172.168 260.491,172.043 260.410,172.025 260.851 M249.780 261.571 C 249.571 261.776,248.770 262.017,248.000 262.107 L 246.600 262.272 248.051 262.336 C 248.920 262.374,249.702 262.159,250.000 261.800 C 250.546 261.142,250.387 260.978,249.780 261.571 M195.300 262.276 C 195.685 262.376,196.315 262.376,196.700 262.276 C 197.085 262.175,196.770 262.093,196.000 262.093 C 195.230 262.093,194.915 262.175,195.300 262.276 M245.300 262.665 C 244.410 263.024,244.653 267.691,245.616 268.725 C 246.404 269.571,246.707 269.600,254.767 269.600 C 264.531 269.600,264.140 269.771,264.256 265.451 L 264.333 262.600 264.048 265.407 C 263.634 269.476,264.305 269.200,254.822 269.200 L 246.492 269.200 245.846 268.214 C 245.009 266.937,244.999 263.858,245.829 263.029 C 246.452 262.406,246.264 262.276,245.300 262.665 M187.232 264.040 C 187.214 264.392,186.629 265.472,185.930 266.440 C 185.232 267.408,184.960 267.955,185.325 267.655 C 186.346 266.818,187.690 264.459,187.465 263.899 C 187.335 263.577,187.252 263.627,187.232 264.040 M192.520 265.600 C 192.520 266.810,192.595 267.305,192.687 266.700 C 192.778 266.095,192.778 265.105,192.687 264.500 C 192.595 263.895,192.520 264.390,192.520 265.600 M164.476 266.366 C 164.568 266.677,165.084 267.206,165.622 267.541 C 166.380 268.014,166.465 268.021,166.000 267.575 C 165.670 267.259,165.154 266.730,164.854 266.400 C 164.415 265.917,164.341 265.910,164.476 266.366 M239.510 268.302 C 239.284 269.166,239.133 269.185,231.540 269.300 L 223.800 269.418 231.451 269.509 C 239.337 269.603,240.401 269.403,239.908 267.924 C 239.816 267.647,239.637 267.817,239.510 268.302 M166.800 268.219 C 166.800 268.513,169.249 269.650,169.609 269.524 C 169.804 269.456,169.251 269.098,168.382 268.730 C 167.512 268.361,166.800 268.131,166.800 268.219 M182.400 268.848 C 181.630 269.261,181.270 269.598,181.600 269.597 C 181.930 269.596,182.740 269.237,183.400 268.800 C 184.892 267.812,184.278 267.842,182.400 268.848 M192.800 268.324 C 192.800 269.471,210.650 270.411,211.339 269.300 C 211.441 269.135,207.648 269.052,202.911 269.115 C 195.275 269.218,194.212 269.154,193.549 268.553 C 193.133 268.177,192.800 268.075,192.800 268.324 M221.200 268.333 C 221.530 268.536,222.250 268.824,222.800 268.971 C 223.495 269.157,223.617 269.125,223.200 268.867 C 222.870 268.664,222.150 268.376,221.600 268.229 C 220.905 268.043,220.783 268.075,221.200 268.333 M172.900 269.897 C 174.385 269.974,176.815 269.974,178.300 269.897 C 179.785 269.820,178.570 269.757,175.600 269.757 C 172.630 269.757,171.415 269.820,172.900 269.897 " stroke="none" fill="#55a6ea" fill-rule="evenodd"></path><path id="path1" d="M136.643 242.233 C 136.509 242.581,136.400 248.506,136.400 255.400 C 136.400 262.294,136.509 268.219,136.643 268.567 C 136.856 269.122,138.166 269.200,147.227 269.200 L 157.568 269.200 158.032 267.652 C 158.717 265.364,158.370 255.289,157.588 254.755 C 157.030 254.374,151.340 254.527,150.933 254.933 C 150.829 255.037,150.643 256.535,150.518 258.261 C 150.245 262.066,150.013 262.400,147.640 262.400 C 143.964 262.400,144.000 262.505,144.000 251.857 C 144.000 245.159,143.866 242.426,143.520 242.080 C 142.751 241.311,136.947 241.439,136.643 242.233 M164.414 242.374 C 163.741 243.631,163.867 264.107,164.558 265.760 C 166.783 271.087,182.803 271.203,186.303 265.917 L 187.400 264.261 187.504 253.630 C 187.626 241.252,187.810 241.867,183.917 241.670 C 179.546 241.449,179.685 241.125,179.529 251.935 L 179.400 260.871 178.229 261.877 C 177.190 262.770,176.829 262.854,175.039 262.616 C 171.873 262.196,172.002 262.632,171.987 252.251 C 171.978 245.193,171.849 242.834,171.443 242.300 C 170.624 241.221,164.999 241.280,164.414 242.374 M193.700 242.088 C 192.920 242.464,192.800 242.832,192.800 244.838 C 192.800 247.444,192.908 247.567,195.510 247.940 C 198.140 248.316,198.387 248.979,198.394 255.671 C 198.400 261.584,198.137 262.400,196.221 262.400 C 193.147 262.400,192.800 262.703,192.800 265.388 C 192.800 269.295,192.643 269.237,202.839 269.108 L 211.397 269.000 211.747 267.338 C 212.403 264.226,211.692 262.637,209.531 262.387 C 206.490 262.034,206.399 261.845,206.405 255.851 C 206.413 248.739,206.745 248.000,209.939 248.000 C 211.917 248.000,212.911 244.234,211.443 242.300 C 210.809 241.464,195.376 241.280,193.700 242.088 M224.200 241.799 C 223.980 241.873,223.130 242.046,222.312 242.183 C 218.285 242.856,217.202 245.667,217.196 255.462 C 217.192 261.374,217.299 262.506,218.067 264.692 L 218.942 267.185 221.580 268.192 C 224.059 269.140,224.666 269.200,231.718 269.200 L 239.220 269.200 239.610 268.174 C 240.041 267.040,240.145 258.025,239.750 256.050 L 239.500 254.800 236.174 254.800 C 232.297 254.800,232.348 254.753,232.099 258.555 C 231.880 261.911,231.455 262.400,228.752 262.400 C 225.757 262.400,225.600 262.063,225.600 255.625 C 225.600 247.945,225.552 248.000,232.186 248.000 C 237.783 248.000,237.600 248.116,237.600 244.581 C 237.600 242.862,237.444 242.345,236.826 242.014 C 236.132 241.643,225.210 241.456,224.200 241.799 M246.100 242.270 C 243.744 243.914,245.234 248.000,248.190 248.000 C 250.175 248.000,250.400 248.749,250.400 255.349 C 250.400 262.119,250.302 262.400,247.949 262.400 C 245.340 262.400,244.165 265.648,245.846 268.214 L 246.492 269.200 254.856 269.200 L 263.220 269.200 263.610 268.174 C 263.824 267.610,264.000 266.189,264.000 265.017 C 264.000 262.727,263.708 262.400,261.656 262.400 C 258.957 262.400,258.700 261.735,258.860 255.163 C 259.021 248.581,259.245 248.040,261.820 248.013 C 263.872 247.991,264.876 244.784,263.586 242.374 C 263.015 241.306,247.612 241.215,246.100 242.270 " stroke="none" fill="#072646" fill-rule="evenodd"></path><path id="path2" d="M0.000 200.000 L 0.000 400.000 200.000 400.000 L 400.000 400.000 400.000 200.000 L 400.000 0.000 200.000 0.000 L 0.000 0.000 0.000 200.000 M197.215 130.638 C 197.553 130.931,198.453 131.462,199.215 131.820 C 199.977 132.177,201.500 132.989,202.600 133.624 C 203.700 134.259,205.500 135.235,206.600 135.791 C 207.700 136.348,209.500 137.318,210.600 137.946 C 211.700 138.575,214.040 139.859,215.800 140.800 C 217.560 141.741,219.900 143.025,221.000 143.654 C 222.100 144.282,223.810 145.183,224.800 145.655 C 225.790 146.127,226.690 146.642,226.800 146.800 C 226.910 146.958,227.810 147.473,228.800 147.945 C 229.790 148.417,231.500 149.318,232.600 149.946 C 233.700 150.575,236.040 151.841,237.800 152.760 C 239.560 153.678,241.720 154.927,242.600 155.534 L 244.200 156.638 244.305 170.059 C 244.425 185.360,244.565 184.692,240.849 186.611 C 237.001 188.598,235.742 189.275,233.800 190.403 C 232.700 191.042,231.170 191.860,230.400 192.222 C 229.630 192.584,228.730 193.102,228.400 193.374 C 228.070 193.646,227.170 194.115,226.400 194.415 C 225.630 194.716,224.820 195.168,224.600 195.420 C 224.380 195.671,223.570 196.114,222.800 196.404 C 222.030 196.694,221.130 197.153,220.800 197.424 C 220.470 197.695,219.480 198.287,218.600 198.740 C 215.262 200.457,213.738 201.277,211.800 202.403 C 210.700 203.042,209.170 203.860,208.400 204.222 C 207.630 204.584,206.730 205.110,206.400 205.391 C 206.070 205.672,205.125 206.140,204.300 206.431 C 203.475 206.722,202.800 207.082,202.800 207.231 C 202.800 207.380,201.945 207.901,200.900 208.388 C 199.855 208.876,198.100 209.795,197.000 210.431 C 195.900 211.067,194.280 211.960,193.400 212.415 C 192.520 212.869,190.900 213.764,189.800 214.403 C 188.700 215.042,187.170 215.860,186.400 216.222 C 185.630 216.584,184.730 217.102,184.400 217.374 C 184.070 217.646,183.170 218.113,182.400 218.411 C 181.630 218.710,180.910 219.081,180.800 219.235 C 180.603 219.511,177.930 220.943,175.207 222.230 C 174.440 222.592,173.381 223.229,172.853 223.644 C 172.301 224.078,171.257 224.400,170.400 224.400 C 169.543 224.400,168.499 224.078,167.947 223.644 C 167.419 223.229,166.360 222.591,165.593 222.227 C 164.827 221.862,163.300 221.042,162.200 220.403 C 160.194 219.238,158.718 218.446,155.000 216.541 C 153.900 215.977,152.910 215.395,152.800 215.247 C 152.690 215.099,151.835 214.641,150.900 214.228 C 149.965 213.816,149.200 213.352,149.200 213.197 C 149.200 213.042,148.618 212.749,147.907 212.545 C 144.924 211.689,144.795 211.039,144.840 197.041 C 144.890 181.497,144.481 182.734,150.600 179.631 C 151.480 179.185,152.470 178.635,152.800 178.410 C 153.130 178.184,153.850 177.807,154.400 177.572 C 154.950 177.337,156.300 176.618,157.400 175.974 C 158.500 175.330,160.300 174.343,161.400 173.780 C 165.141 171.865,166.641 171.001,167.922 170.025 L 169.200 169.050 169.206 156.825 C 169.213 141.853,168.723 143.135,175.800 139.589 C 176.680 139.148,178.300 138.269,179.400 137.635 C 181.480 136.436,183.473 135.354,186.200 133.944 C 187.080 133.489,188.070 132.887,188.400 132.606 C 188.730 132.325,189.450 131.962,190.000 131.800 C 190.550 131.638,191.296 131.246,191.657 130.930 C 193.140 129.630,195.881 129.487,197.215 130.638 M144.214 239.906 C 146.294 241.384,146.400 241.962,146.400 251.854 L 146.400 261.200 147.800 261.200 L 149.200 261.200 149.200 258.000 C 149.200 253.577,149.601 253.199,154.300 253.201 C 157.083 253.203,158.066 253.365,159.100 253.996 L 160.400 254.788 160.400 261.561 C 160.400 271.511,161.428 270.800,147.048 270.800 C 134.992 270.800,135.419 270.917,135.001 267.500 C 134.404 262.623,134.953 241.834,135.709 240.681 C 136.426 239.589,142.932 238.996,144.214 239.906 M171.929 239.948 C 172.872 240.546,173.181 243.256,173.190 251.040 C 173.202 260.471,173.392 261.200,175.839 261.200 L 177.600 261.200 177.600 251.382 L 177.600 241.564 178.582 240.582 C 179.484 239.679,179.866 239.600,183.305 239.600 C 189.058 239.600,188.600 238.400,188.600 253.468 L 188.600 266.200 187.340 267.500 C 186.646 268.215,185.791 268.800,185.440 268.800 C 185.088 268.800,184.800 269.074,184.800 269.410 C 184.800 270.803,169.518 271.578,167.375 270.294 C 164.431 268.530,163.652 267.860,163.408 266.884 C 163.259 266.288,162.837 265.466,162.469 265.059 C 161.885 264.411,161.785 262.934,161.682 253.393 L 161.564 242.469 162.824 241.034 L 164.083 239.600 167.741 239.606 C 169.754 239.609,171.638 239.763,171.929 239.948 M211.929 239.948 C 214.459 241.552,212.967 250.000,210.154 250.000 C 208.537 250.000,208.400 250.390,208.400 254.983 C 208.400 260.639,208.580 261.200,210.401 261.200 C 212.592 261.200,212.933 261.858,212.933 266.078 C 212.933 271.065,213.532 270.801,202.224 270.794 C 192.198 270.787,192.168 270.782,191.593 268.775 C 190.198 263.911,191.417 261.200,195.000 261.200 L 197.200 261.200 197.200 255.998 L 197.200 250.797 195.465 250.333 C 192.048 249.419,191.398 248.504,191.414 244.630 C 191.435 239.378,190.963 239.599,202.162 239.606 C 207.243 239.609,211.638 239.763,211.929 239.948 M238.177 240.489 C 238.622 241.124,238.800 242.347,238.800 244.763 C 238.800 249.551,238.342 249.998,233.430 250.004 C 231.434 250.007,229.125 250.120,228.300 250.257 L 226.800 250.505 226.800 255.852 L 226.800 261.200 228.400 261.200 L 230.000 261.200 230.000 258.960 C 230.000 254.500,231.342 253.196,235.926 253.205 C 239.645 253.213,240.318 253.471,241.218 255.235 C 242.175 257.112,242.397 267.510,241.500 268.488 C 241.225 268.788,240.800 269.386,240.555 269.817 C 239.813 271.124,221.467 271.018,220.400 269.700 C 219.999 269.205,219.395 268.800,219.057 268.800 C 218.719 268.800,217.803 267.836,217.021 266.659 L 215.600 264.517 215.600 255.190 C 215.600 247.220,215.693 245.761,216.237 245.159 C 216.587 244.772,217.172 243.861,217.537 243.135 C 217.998 242.217,218.629 241.690,219.604 241.407 C 220.377 241.183,221.452 240.685,221.993 240.300 C 223.682 239.100,237.316 239.259,238.177 240.489 M264.995 241.192 C 267.257 244.776,265.711 249.689,262.200 250.070 L 261.000 250.200 260.889 255.700 L 260.777 261.200 262.368 261.200 C 265.660 261.200,267.223 265.253,265.344 268.920 C 264.374 270.813,264.517 270.788,254.800 270.788 C 243.362 270.788,243.838 270.987,243.686 266.150 C 243.551 261.863,243.764 261.552,247.024 261.281 L 249.200 261.101 249.200 255.550 L 249.200 250.000 247.624 250.000 C 246.757 250.000,245.929 249.809,245.785 249.575 C 245.640 249.342,245.090 248.986,244.561 248.785 C 243.083 248.223,243.099 242.065,244.582 240.582 L 245.564 239.600 254.777 239.600 L 263.990 239.600 264.995 241.192 " stroke="none" fill="#fbfcfc" fill-rule="evenodd"></path><path id="path3" d="M191.000 131.627 C 189.460 132.496,187.480 133.570,186.600 134.014 C 185.720 134.457,184.550 135.085,184.000 135.409 C 180.988 137.183,171.945 142.000,171.629 142.000 C 169.814 142.000,169.600 143.537,169.600 156.600 L 169.600 169.093 167.734 170.546 C 166.708 171.346,165.719 172.000,165.536 172.000 C 165.237 172.000,154.271 177.875,152.800 178.823 C 152.470 179.036,151.480 179.573,150.600 180.016 C 144.880 182.899,145.289 181.607,145.240 196.920 C 145.195 210.893,145.227 211.069,148.123 212.445 C 149.045 212.883,150.700 213.755,151.800 214.383 C 152.900 215.012,154.520 215.894,155.400 216.345 C 156.280 216.796,158.620 218.072,160.600 219.181 C 162.580 220.291,165.148 221.671,166.308 222.250 C 167.467 222.828,168.512 223.458,168.631 223.650 C 169.115 224.433,171.636 223.943,174.066 222.593 C 175.460 221.819,177.320 220.809,178.200 220.348 C 179.080 219.887,180.880 218.917,182.200 218.192 C 183.520 217.468,185.320 216.501,186.200 216.045 C 187.080 215.588,189.420 214.303,191.400 213.189 C 193.380 212.076,195.720 210.794,196.600 210.341 C 197.480 209.888,199.100 208.997,200.200 208.361 C 201.300 207.724,203.100 206.748,204.200 206.191 C 205.300 205.635,207.100 204.662,208.200 204.031 C 209.300 203.399,210.920 202.512,211.800 202.059 C 212.680 201.606,215.020 200.328,217.000 199.219 C 221.802 196.529,223.809 195.441,226.200 194.230 C 228.029 193.303,229.393 192.557,236.600 188.538 C 237.920 187.802,239.630 186.893,240.400 186.518 C 241.170 186.142,242.295 185.389,242.900 184.843 L 244.000 183.850 244.000 170.354 L 244.000 156.858 242.957 156.038 C 242.384 155.587,240.989 154.750,239.857 154.179 C 238.726 153.607,236.900 152.645,235.800 152.041 C 234.700 151.436,232.540 150.259,231.000 149.424 C 229.460 148.589,227.660 147.590,227.000 147.204 C 225.914 146.568,222.973 144.973,217.400 141.998 C 216.300 141.411,214.500 140.428,213.400 139.813 C 212.300 139.199,209.873 137.897,208.007 136.920 C 206.141 135.943,204.431 134.995,204.207 134.812 C 203.983 134.630,202.306 133.697,200.479 132.740 C 198.653 131.783,196.763 130.778,196.279 130.506 C 194.910 129.737,194.013 129.927,191.000 131.627 M195.880 131.342 C 196.272 132.005,197.731 132.800,198.556 132.800 C 198.890 132.800,199.614 133.250,200.164 133.800 C 200.714 134.350,201.579 134.800,202.086 134.800 C 202.593 134.800,203.222 135.144,203.485 135.564 C 203.747 135.984,204.555 136.458,205.281 136.618 C 206.006 136.777,206.825 137.229,207.100 137.622 C 207.376 138.015,208.159 138.459,208.841 138.609 C 209.523 138.759,210.419 139.219,210.831 139.631 C 211.243 140.043,212.060 140.500,212.648 140.648 C 213.235 140.795,214.045 141.245,214.448 141.648 C 214.850 142.050,215.679 142.502,216.290 142.651 C 216.900 142.800,217.909 143.344,218.531 143.861 C 219.153 144.377,220.054 144.800,220.534 144.800 C 221.015 144.800,221.622 145.144,221.885 145.564 C 222.147 145.984,222.955 146.458,223.681 146.618 C 224.406 146.777,225.230 147.236,225.511 147.638 C 225.793 148.039,226.653 148.486,227.422 148.631 C 228.192 148.775,228.995 149.218,229.208 149.614 C 229.420 150.011,230.153 150.458,230.837 150.608 C 231.522 150.758,232.419 151.219,232.831 151.631 C 233.243 152.043,234.060 152.500,234.648 152.648 C 235.235 152.795,236.045 153.245,236.448 153.648 C 236.850 154.050,237.679 154.500,238.290 154.646 C 238.900 154.793,239.729 155.255,240.131 155.672 C 240.532 156.090,241.367 156.533,241.985 156.657 C 243.523 156.965,243.590 157.579,243.596 171.411 L 243.600 183.022 242.391 184.083 C 241.726 184.667,240.558 185.350,239.796 185.601 C 239.034 185.853,238.299 186.240,238.162 186.462 C 238.024 186.684,237.167 187.221,236.256 187.654 C 235.345 188.087,233.700 188.958,232.600 189.590 C 231.500 190.221,229.977 191.029,229.215 191.384 C 228.453 191.740,227.553 192.272,227.215 192.568 C 226.877 192.864,226.150 193.237,225.600 193.399 C 225.050 193.560,224.240 194.009,223.800 194.397 C 223.360 194.784,222.312 195.322,221.472 195.591 C 220.632 195.860,219.852 196.319,219.741 196.610 C 219.629 196.902,218.830 197.260,217.966 197.406 C 217.102 197.552,216.164 198.002,215.880 198.407 C 215.596 198.812,214.832 199.269,214.182 199.422 C 213.532 199.575,212.588 200.127,212.084 200.650 C 211.580 201.172,210.796 201.600,210.342 201.600 C 209.887 201.600,208.981 202.050,208.327 202.600 C 207.673 203.150,206.803 203.600,206.392 203.600 C 205.981 203.600,205.410 203.923,205.123 204.317 C 204.835 204.712,203.835 205.259,202.900 205.533 C 201.965 205.808,201.200 206.279,201.200 206.581 C 201.200 206.910,200.557 207.238,199.595 207.401 C 198.676 207.556,197.826 207.977,197.608 208.385 C 197.398 208.777,196.410 209.304,195.413 209.555 C 194.281 209.840,193.600 210.235,193.600 210.606 C 193.600 211.042,193.148 211.193,191.900 211.175 L 190.200 211.150 191.900 210.296 L 193.600 209.442 193.600 198.109 C 193.600 184.200,194.447 185.134,186.000 189.719 C 184.350 190.615,182.370 191.678,181.600 192.083 C 180.830 192.487,179.120 193.431,177.800 194.181 C 176.480 194.931,174.759 195.833,173.976 196.185 C 171.773 197.177,171.600 198.129,171.600 209.266 C 171.600 220.149,171.764 220.847,174.184 220.240 C 174.938 220.051,175.200 220.141,175.200 220.592 C 175.200 220.977,174.826 221.200,174.182 221.200 C 173.622 221.200,172.714 221.650,172.164 222.200 C 170.955 223.409,170.027 223.464,168.800 222.400 C 168.293 221.960,167.660 221.600,167.395 221.600 C 167.129 221.600,166.249 221.150,165.438 220.600 C 164.628 220.050,163.716 219.600,163.413 219.600 C 163.110 219.600,162.327 219.150,161.673 218.600 C 161.019 218.050,160.230 217.600,159.920 217.600 C 159.609 217.600,158.745 217.150,158.000 216.600 C 157.255 216.050,156.434 215.600,156.176 215.600 C 155.919 215.600,155.242 215.234,154.673 214.786 C 154.103 214.338,153.044 213.766,152.319 213.516 C 151.593 213.265,150.820 212.825,150.600 212.538 C 150.380 212.250,149.484 211.770,148.609 211.471 C 146.466 210.737,146.486 210.866,146.440 197.150 C 146.394 183.426,146.443 182.971,148.011 182.658 C 148.631 182.534,149.468 182.090,149.869 181.672 C 150.271 181.255,151.100 180.793,151.710 180.646 C 152.321 180.500,153.157 180.043,153.569 179.631 C 153.981 179.219,154.858 178.763,155.518 178.618 C 156.177 178.473,157.024 178.015,157.400 177.600 C 157.776 177.185,158.606 176.731,159.245 176.590 C 159.884 176.450,160.580 176.011,160.792 175.614 C 161.005 175.218,161.817 174.773,162.598 174.627 C 163.379 174.480,164.237 174.009,164.505 173.580 C 164.773 173.151,165.374 172.800,165.840 172.800 C 166.306 172.800,167.478 172.175,168.444 171.411 L 170.200 170.022 170.400 157.082 C 170.620 142.859,170.559 143.180,173.126 142.616 C 173.830 142.462,174.580 142.011,174.792 141.614 C 175.005 141.218,175.817 140.773,176.598 140.627 C 177.379 140.480,178.237 140.009,178.505 139.580 C 178.773 139.151,179.385 138.800,179.866 138.800 C 180.346 138.800,181.247 138.377,181.869 137.861 C 182.491 137.344,183.490 136.802,184.089 136.656 C 184.688 136.510,185.498 136.058,185.889 135.652 C 186.280 135.245,187.100 134.793,187.710 134.646 C 188.321 134.500,189.157 134.043,189.569 133.631 C 189.981 133.219,190.858 132.763,191.518 132.618 C 192.177 132.473,193.034 132.005,193.421 131.577 C 194.237 130.675,195.420 130.562,195.880 131.342 M189.735 212.574 C 190.007 213.283,189.436 213.496,187.877 213.267 L 186.681 213.092 187.641 212.560 C 188.894 211.866,189.464 211.870,189.735 212.574 M185.892 214.676 C 186.085 215.256,185.070 215.596,183.989 215.313 L 183.101 215.081 184.051 214.555 C 185.090 213.980,185.673 214.019,185.892 214.676 M181.767 216.243 C 182.649 216.581,182.556 217.066,181.561 217.326 C 180.172 217.689,179.325 217.190,180.220 216.536 C 181.073 215.912,180.961 215.933,181.767 216.243 M179.200 218.755 C 179.200 219.145,177.201 219.534,176.462 219.287 C 176.205 219.202,176.097 218.967,176.221 218.766 C 176.512 218.296,179.200 218.285,179.200 218.755 M136.223 241.289 C 135.197 242.754,135.296 268.801,136.331 269.738 C 137.221 270.543,156.007 270.744,157.713 269.967 C 159.168 269.304,159.600 267.448,159.600 261.859 C 159.600 254.075,158.950 253.223,153.361 253.687 C 150.392 253.933,149.963 254.461,149.655 258.255 C 149.374 261.713,149.182 261.911,146.580 261.423 L 145.240 261.171 145.120 251.627 C 144.973 239.957,145.169 240.400,140.161 240.400 C 137.188 240.400,136.781 240.492,136.223 241.289 M163.606 241.483 C 162.777 242.537,162.758 242.854,162.877 253.583 C 163.022 266.563,163.102 266.881,166.800 269.085 L 169.000 270.397 175.240 270.398 C 181.031 270.400,184.000 269.995,184.000 269.204 C 184.000 269.030,184.456 268.772,185.014 268.632 C 185.571 268.492,186.230 267.933,186.478 267.389 C 186.726 266.845,187.062 266.400,187.225 266.400 C 188.408 266.400,189.061 244.003,187.940 241.874 C 186.944 239.980,181.319 239.648,179.322 241.365 L 178.200 242.329 178.000 251.865 L 177.800 261.400 176.400 261.618 C 175.630 261.738,174.505 261.675,173.900 261.479 L 172.800 261.122 172.800 252.148 C 172.800 245.217,172.668 242.859,172.220 241.787 L 171.641 240.400 168.049 240.400 C 164.622 240.400,164.419 240.449,163.606 241.483 M192.800 241.200 C 192.156 241.844,192.001 242.528,192.006 244.700 C 192.014 248.098,192.239 248.431,194.807 248.837 C 197.565 249.273,197.400 248.847,197.400 255.531 L 197.400 261.398 195.293 261.656 C 192.283 262.025,192.000 262.378,192.000 265.773 C 192.000 270.377,191.560 270.178,202.081 270.327 C 212.691 270.477,212.378 270.602,212.703 266.060 C 212.939 262.763,212.185 261.600,209.814 261.600 C 207.882 261.600,207.600 260.835,207.600 255.588 C 207.600 250.218,208.156 248.800,210.264 248.800 C 212.628 248.800,213.638 245.180,212.220 241.787 L 211.641 240.400 202.620 240.400 C 194.133 240.400,193.553 240.447,192.800 241.200 M221.609 241.280 C 216.886 242.946,216.001 245.167,216.000 255.350 C 216.000 265.062,216.605 266.862,220.567 268.921 L 223.000 270.185 231.065 270.328 C 241.568 270.513,240.800 271.165,240.800 262.062 C 240.800 253.789,240.928 254.000,235.891 254.000 C 231.617 254.000,231.200 254.398,231.200 258.481 C 231.200 261.493,230.866 261.807,227.955 261.529 L 226.600 261.400 226.484 256.400 C 226.309 248.827,226.334 248.800,233.446 248.800 C 238.298 248.800,238.400 248.716,238.400 244.715 C 238.400 240.401,238.379 240.390,230.477 240.453 C 224.996 240.497,223.408 240.645,221.609 241.280 M245.692 240.668 C 244.781 241.034,244.000 243.117,244.000 245.180 C 244.000 247.833,244.903 248.800,247.382 248.800 C 249.591 248.800,249.692 249.161,249.519 256.395 L 249.400 261.390 247.233 261.701 C 244.308 262.122,244.000 262.457,244.000 265.223 C 244.000 270.178,244.476 270.400,255.086 270.400 C 263.771 270.400,264.182 270.296,264.814 267.948 C 265.691 264.692,264.501 261.600,262.371 261.600 C 260.020 261.600,259.999 261.552,260.006 256.057 C 260.013 250.000,260.342 249.056,262.508 248.876 C 264.893 248.677,266.057 244.315,264.424 241.700 L 263.612 240.400 254.906 240.432 C 250.118 240.449,245.971 240.555,245.692 240.668 M143.669 241.862 C 144.337 242.467,144.400 243.323,144.400 251.848 C 144.400 262.414,144.264 262.000,147.725 262.000 C 150.055 262.000,150.341 261.562,150.482 257.781 L 150.600 254.600 154.000 254.498 C 155.870 254.442,157.667 254.569,157.994 254.780 C 158.905 255.368,159.120 266.059,158.263 268.112 L 157.641 269.600 147.211 269.600 L 136.780 269.600 136.390 268.574 C 135.813 267.056,135.879 243.503,136.464 242.219 C 137.053 240.927,142.346 240.665,143.669 241.862 M171.476 241.700 C 171.654 241.975,171.890 246.466,172.000 251.681 C 172.136 258.109,172.350 261.311,172.665 261.626 C 173.485 262.444,176.668 262.578,177.792 261.842 L 178.800 261.182 178.800 252.020 L 178.800 242.858 179.854 242.029 C 181.387 240.823,186.031 240.831,187.242 242.042 C 188.063 242.863,188.081 243.144,187.942 253.571 L 187.800 264.259 186.732 265.873 C 184.565 269.147,182.713 269.800,175.593 269.800 L 169.386 269.800 167.002 268.385 C 163.730 266.444,163.668 266.172,163.631 253.389 C 163.593 240.670,163.403 241.200,167.999 241.200 C 170.083 241.200,171.263 241.370,171.476 241.700 M211.586 241.974 C 212.951 244.525,211.872 248.400,209.796 248.400 C 207.229 248.400,207.015 248.903,206.868 255.249 C 206.720 261.684,206.848 262.000,209.596 262.000 C 211.611 262.000,212.000 262.567,212.000 265.506 C 212.000 269.818,212.496 269.600,202.662 269.600 C 192.629 269.600,192.736 269.636,192.498 266.154 C 192.291 263.121,192.764 262.502,195.600 262.101 L 197.800 261.790 197.911 255.889 C 198.040 248.991,197.906 248.584,195.415 248.303 C 192.880 248.017,192.400 247.496,192.400 245.027 C 192.400 241.271,192.399 241.272,202.886 241.232 C 210.686 241.202,211.196 241.245,211.586 241.974 M237.377 242.089 C 237.748 242.618,238.000 243.824,238.000 245.066 C 238.000 248.081,237.399 248.400,231.720 248.400 C 225.820 248.400,225.800 248.425,225.800 255.622 C 225.800 261.671,225.964 262.000,228.969 262.000 C 231.643 262.000,232.000 261.588,232.000 258.494 C 232.000 254.635,232.228 254.400,235.965 254.400 C 240.273 254.400,240.200 254.269,240.200 262.000 C 240.200 270.248,240.921 269.600,231.743 269.600 C 218.054 269.600,216.800 268.387,216.800 255.149 C 216.800 242.402,217.876 241.308,230.477 241.236 C 236.531 241.201,236.777 241.232,237.377 242.089 M263.777 242.089 C 265.353 244.338,264.218 248.400,262.014 248.400 C 259.647 248.400,259.413 248.984,259.268 255.249 C 259.122 261.598,259.266 261.987,261.776 262.013 C 264.327 262.039,265.558 266.640,263.635 268.958 C 262.682 270.107,246.710 269.900,245.616 268.725 C 243.167 266.096,244.870 262.000,248.411 262.000 C 250.324 262.000,250.503 261.348,250.339 254.987 C 250.178 248.778,250.055 248.419,248.080 248.406 C 244.957 248.385,243.458 244.480,245.670 242.126 C 247.004 240.705,262.786 240.673,263.777 242.089 " stroke="none" fill="#9ebcd9" fill-rule="evenodd"></path><path id="path4" d="M191.944 130.824 L 191.000 131.647 192.200 130.945 C 193.779 130.020,193.803 130.000,193.311 130.000 C 193.079 130.000,192.464 130.371,191.944 130.824 M196.000 130.291 C 196.330 130.417,197.029 130.853,197.554 131.260 C 198.079 131.667,198.689 132.000,198.910 132.000 C 199.131 132.000,198.649 131.550,197.838 131.000 C 197.028 130.450,196.147 130.014,195.882 130.032 C 195.616 130.049,195.668 130.165,196.000 130.291 M189.638 131.885 C 188.731 132.245,186.254 134.000,186.655 134.000 C 186.857 134.000,187.463 133.685,188.003 133.300 C 188.542 132.915,189.437 132.390,189.992 132.132 C 190.997 131.667,190.706 131.463,189.638 131.885 M184.041 135.034 C 183.293 135.565,182.853 136.000,183.063 136.000 C 183.273 136.000,184.055 135.550,184.800 135.000 C 186.535 133.720,185.847 133.751,184.041 135.034 M204.109 134.800 C 204.669 135.240,205.257 135.600,205.417 135.600 C 205.577 135.600,205.250 135.240,204.691 134.800 C 204.131 134.360,203.543 134.000,203.383 134.000 C 203.223 134.000,203.550 134.360,204.109 134.800 M206.033 135.728 C 206.669 136.215,209.200 137.536,209.200 137.381 C 209.200 137.113,206.682 135.603,206.233 135.601 C 206.032 135.601,205.942 135.657,206.033 135.728 M214.400 140.155 C 214.400 140.431,217.221 142.112,217.394 141.939 C 217.478 141.855,216.838 141.380,215.973 140.882 C 215.108 140.384,214.400 140.057,214.400 140.155 M169.200 156.725 L 169.200 169.050 167.917 170.025 C 167.211 170.561,166.266 171.219,165.817 171.486 C 165.368 171.753,165.195 171.978,165.434 171.986 C 165.673 171.994,166.708 171.346,167.734 170.546 L 169.600 169.093 169.600 156.746 C 169.600 149.956,169.510 144.400,169.400 144.400 C 169.290 144.400,169.200 149.946,169.200 156.725 M228.033 147.728 C 228.669 148.215,231.200 149.536,231.200 149.381 C 231.200 149.113,228.682 147.603,228.233 147.601 C 228.032 147.601,227.942 147.657,228.033 147.728 M237.944 153.176 C 238.464 153.629,239.079 154.000,239.311 154.000 C 239.803 154.000,239.779 153.980,238.200 153.055 L 237.000 152.353 237.944 153.176 M243.295 156.225 C 243.918 156.967,244.000 158.412,244.100 170.425 L 244.211 183.800 244.306 170.362 L 244.400 156.924 243.500 156.162 C 242.602 155.402,242.602 155.402,243.295 156.225 M160.100 174.396 C 158.294 175.497,158.463 175.766,160.300 174.714 C 162.148 173.656,162.223 173.600,161.767 173.601 C 161.565 173.602,160.815 173.960,160.100 174.396 M156.500 176.396 C 154.694 177.497,154.863 177.766,156.700 176.714 C 158.548 175.656,158.623 175.600,158.167 175.601 C 157.965 175.602,157.215 175.960,156.500 176.396 M153.638 177.885 C 152.731 178.245,150.254 180.000,150.655 180.000 C 150.857 180.000,151.463 179.685,152.003 179.300 C 152.542 178.915,153.437 178.390,153.992 178.132 C 154.997 177.667,154.706 177.463,153.638 177.885 M148.000 181.018 C 144.660 183.282,145.014 181.551,144.880 196.265 L 144.760 209.423 145.680 210.781 C 146.186 211.527,146.870 212.208,147.200 212.292 C 147.606 212.397,147.574 212.303,147.100 212.003 C 145.329 210.882,145.200 209.882,145.200 197.270 C 145.200 183.406,145.247 183.001,146.953 182.126 C 148.397 181.386,150.274 179.984,149.754 180.034 C 149.559 180.053,148.770 180.496,148.000 181.018 M234.600 189.627 C 233.940 190.050,233.605 190.397,233.856 190.398 C 234.106 190.399,234.736 190.046,235.256 189.613 C 236.445 188.623,236.159 188.629,234.600 189.627 M231.000 191.627 C 230.340 192.050,230.005 192.397,230.256 192.398 C 230.506 192.399,231.136 192.046,231.656 191.613 C 232.845 190.623,232.559 190.629,231.000 191.627 M228.056 193.213 C 226.816 194.246,227.375 194.235,228.691 193.200 C 229.250 192.760,229.549 192.406,229.354 192.413 C 229.159 192.421,228.575 192.781,228.056 193.213 M216.200 199.627 C 215.540 200.050,215.205 200.397,215.456 200.398 C 215.706 200.399,216.336 200.046,216.856 199.613 C 218.045 198.623,217.759 198.629,216.200 199.627 M212.600 201.627 C 211.940 202.050,211.605 202.397,211.856 202.398 C 212.106 202.399,212.736 202.046,213.256 201.613 C 214.445 200.623,214.159 200.629,212.600 201.627 M209.241 203.434 C 208.493 203.965,208.053 204.400,208.263 204.400 C 208.473 204.400,209.255 203.950,210.000 203.400 C 211.735 202.120,211.047 202.151,209.241 203.434 M206.056 205.213 C 204.816 206.246,205.375 206.235,206.691 205.200 C 207.250 204.760,207.549 204.406,207.354 204.413 C 207.159 204.421,206.575 204.781,206.056 205.213 M194.200 211.627 C 193.540 212.050,193.205 212.397,193.456 212.398 C 193.706 212.399,194.336 212.046,194.856 211.613 C 196.045 210.623,195.759 210.629,194.200 211.627 M190.600 213.627 C 189.940 214.050,189.605 214.397,189.856 214.398 C 190.106 214.399,190.736 214.046,191.256 213.613 C 192.445 212.623,192.159 212.629,190.600 213.627 M187.241 215.434 C 186.493 215.965,186.053 216.400,186.263 216.400 C 186.473 216.400,187.255 215.950,188.000 215.400 C 189.735 214.120,189.047 214.151,187.241 215.434 M184.056 217.213 C 182.816 218.246,183.375 218.235,184.691 217.200 C 185.250 216.760,185.549 216.406,185.354 216.413 C 185.159 216.421,184.575 216.781,184.056 217.213 M157.144 217.576 C 157.664 218.029,158.279 218.400,158.511 218.400 C 159.003 218.400,158.979 218.380,157.400 217.455 L 156.200 216.753 157.144 217.576 M160.744 219.576 C 161.264 220.029,161.879 220.400,162.111 220.400 C 162.603 220.400,162.579 220.380,161.000 219.455 L 159.800 218.753 160.744 219.576 M164.000 221.400 C 164.745 221.950,165.526 222.400,165.734 222.400 C 165.941 222.400,165.449 221.950,164.638 221.400 C 163.828 220.850,163.047 220.400,162.905 220.400 C 162.762 220.400,163.255 220.850,164.000 221.400 M167.600 223.400 C 169.311 224.662,171.533 224.733,172.856 223.568 L 173.800 222.736 172.811 223.368 C 171.465 224.228,169.214 224.149,168.000 223.200 C 167.450 222.770,166.830 222.414,166.622 222.409 C 166.415 222.404,166.855 222.850,167.600 223.400 M135.709 240.681 C 134.953 241.834,134.404 262.623,135.001 267.500 C 135.419 270.917,134.992 270.800,147.048 270.800 C 161.428 270.800,160.400 271.511,160.400 261.561 L 160.400 254.788 159.100 253.996 C 158.066 253.365,157.083 253.203,154.300 253.201 C 149.601 253.199,149.200 253.577,149.200 258.000 L 149.200 261.200 147.800 261.200 L 146.400 261.200 146.400 251.854 C 146.400 241.962,146.294 241.384,144.214 239.906 C 142.932 238.996,136.426 239.589,135.709 240.681 M162.824 241.034 L 161.564 242.469 161.682 253.393 C 161.785 262.934,161.885 264.411,162.469 265.059 C 162.837 265.466,163.259 266.288,163.408 266.884 C 163.652 267.860,164.431 268.530,167.375 270.294 C 168.389 270.902,182.224 270.999,183.774 270.410 C 184.755 270.037,185.236 268.800,184.400 268.800 C 184.180 268.800,184.000 268.962,184.000 269.161 C 184.000 269.995,181.137 270.400,175.240 270.398 L 169.000 270.397 166.800 269.085 C 163.102 266.881,163.022 266.563,162.877 253.583 C 162.725 239.866,162.515 240.400,168.049 240.400 L 171.641 240.400 172.220 241.787 C 172.668 242.859,172.800 245.217,172.800 252.148 L 172.800 261.122 173.900 261.479 C 174.505 261.675,175.630 261.738,176.400 261.618 L 177.800 261.400 178.000 251.865 L 178.200 242.329 179.322 241.365 C 180.300 240.524,180.841 240.401,183.522 240.406 C 188.536 240.416,188.400 240.055,188.400 253.348 C 188.400 265.164,188.377 265.299,185.900 268.029 C 184.699 269.353,186.010 268.871,187.340 267.500 L 188.600 266.200 188.600 253.468 C 188.600 238.400,189.058 239.600,183.305 239.600 C 179.866 239.600,179.484 239.679,178.582 240.582 L 177.600 241.564 177.600 251.382 L 177.600 261.200 175.839 261.200 C 173.392 261.200,173.202 260.471,173.190 251.040 C 173.176 239.527,173.218 239.615,167.741 239.606 L 164.083 239.600 162.824 241.034 M192.176 240.427 C 191.572 241.094,191.425 241.906,191.414 244.630 C 191.398 248.504,192.048 249.419,195.465 250.333 L 197.200 250.797 197.200 255.998 L 197.200 261.200 195.000 261.200 C 191.417 261.200,190.198 263.911,191.593 268.775 C 192.168 270.781,192.203 270.787,202.126 270.794 C 212.217 270.801,212.830 270.679,212.746 268.686 C 212.709 267.820,212.636 267.680,212.523 268.258 C 212.111 270.364,211.590 270.467,202.004 270.328 C 191.570 270.177,192.000 270.373,192.000 265.773 C 192.000 262.378,192.283 262.025,195.293 261.656 L 197.400 261.398 197.400 255.531 C 197.400 248.847,197.565 249.273,194.807 248.837 C 192.239 248.431,192.014 248.098,192.006 244.700 C 191.996 240.317,191.792 240.400,202.620 240.400 L 211.641 240.400 212.220 241.787 C 212.539 242.550,212.800 243.750,212.800 244.454 C 212.800 245.158,212.912 245.622,213.048 245.485 C 213.487 245.046,212.763 240.820,212.143 240.200 C 211.068 239.125,193.169 239.329,192.176 240.427 M221.993 240.300 C 221.452 240.685,220.377 241.183,219.604 241.407 C 218.629 241.690,217.998 242.217,217.537 243.135 C 217.172 243.861,216.587 244.772,216.237 245.159 C 215.693 245.761,215.600 247.220,215.600 255.190 L 215.600 264.517 217.021 266.659 C 217.803 267.836,218.719 268.800,219.057 268.800 C 219.395 268.800,219.999 269.205,220.400 269.700 C 221.467 271.018,239.813 271.124,240.555 269.817 C 240.800 269.386,241.225 268.788,241.500 268.488 C 242.397 267.510,242.175 257.112,241.218 255.235 C 240.318 253.471,239.645 253.213,235.926 253.205 C 231.342 253.196,230.000 254.500,230.000 258.960 L 230.000 261.200 228.400 261.200 L 226.800 261.200 226.800 255.852 L 226.800 250.505 228.300 250.257 C 229.125 250.120,231.434 250.007,233.430 250.004 C 238.342 249.998,238.800 249.551,238.800 244.763 C 238.800 239.440,239.064 239.600,230.266 239.600 C 223.967 239.600,222.844 239.695,221.993 240.300 M244.582 240.582 C 243.099 242.065,243.083 248.223,244.561 248.785 C 245.090 248.986,245.640 249.342,245.785 249.575 C 245.929 249.809,246.757 250.000,247.624 250.000 L 249.200 250.000 249.200 255.550 L 249.200 261.101 247.024 261.281 C 243.764 261.552,243.551 261.863,243.686 266.150 C 243.838 270.987,243.362 270.788,254.800 270.788 C 264.517 270.788,264.374 270.813,265.344 268.920 C 267.223 265.253,265.660 261.200,262.368 261.200 L 260.777 261.200 260.889 255.700 L 261.000 250.200 262.200 250.070 C 265.711 249.689,267.257 244.776,264.995 241.192 L 263.990 239.600 254.777 239.600 L 245.564 239.600 244.582 240.582 M144.238 241.241 C 144.935 242.010,145.010 242.900,145.120 251.627 L 145.240 261.171 146.580 261.423 C 149.182 261.911,149.374 261.713,149.655 258.255 C 150.004 253.962,151.889 252.815,157.012 253.776 C 160.332 254.399,160.942 268.496,157.713 269.967 C 156.007 270.744,137.221 270.543,136.331 269.738 C 135.296 268.801,135.197 242.754,136.223 241.289 C 137.135 239.987,143.070 239.951,144.238 241.241 M237.777 241.289 C 238.499 242.319,238.638 246.808,237.986 248.026 C 237.618 248.714,237.116 248.800,233.446 248.800 C 226.334 248.800,226.309 248.827,226.484 256.400 L 226.600 261.400 227.955 261.529 C 230.866 261.807,231.200 261.493,231.200 258.481 C 231.200 254.398,231.617 254.000,235.891 254.000 C 240.928 254.000,240.800 253.789,240.800 262.062 C 240.800 271.165,241.568 270.513,231.065 270.328 L 223.000 270.185 220.567 268.921 C 216.605 266.862,216.000 265.062,216.000 255.350 C 216.001 242.141,217.541 240.556,230.477 240.453 C 236.954 240.402,237.173 240.427,237.777 241.289 M264.424 241.700 C 266.057 244.315,264.893 248.677,262.508 248.876 C 260.342 249.056,260.013 250.000,260.006 256.057 C 259.999 261.552,260.020 261.600,262.371 261.600 C 264.501 261.600,265.691 264.692,264.814 267.948 C 264.182 270.296,263.771 270.400,255.086 270.400 C 244.476 270.400,244.000 270.178,244.000 265.223 C 244.000 262.457,244.308 262.122,247.233 261.701 L 249.400 261.390 249.519 256.395 C 249.692 249.161,249.591 248.800,247.382 248.800 C 244.252 248.800,242.848 245.388,244.592 242.016 C 245.410 240.433,245.191 240.467,254.906 240.432 L 263.612 240.400 264.424 241.700 M212.097 247.987 C 211.756 248.537,211.169 248.800,210.283 248.800 C 208.154 248.800,207.600 250.202,207.600 255.588 C 207.600 260.835,207.882 261.600,209.814 261.600 C 210.667 261.600,211.508 261.908,212.000 262.400 C 212.513 262.913,212.800 263.013,212.800 262.680 C 212.800 261.761,211.879 261.200,210.370 261.200 C 208.585 261.200,208.400 260.616,208.400 254.983 C 208.400 250.390,208.537 250.000,210.154 250.000 C 211.521 250.000,212.937 248.763,212.723 247.755 C 212.631 247.318,212.475 247.376,212.097 247.987 M212.893 266.000 C 212.893 266.770,212.975 267.085,213.076 266.700 C 213.176 266.315,213.176 265.685,213.076 265.300 C 212.975 264.915,212.893 265.230,212.893 266.000 " stroke="none" fill="#c4cccc" fill-rule="evenodd"></path></g></svg>